/* XPM */
static char *_9069e9149fa48ebc9b8fdaf8e28e088irG2jKRxJDBvyVEC[] = {
/* columns rows colors chars-per-pixel */
"16 16 2 1 ",
"  c #4F4E4F",
". c #AD9C7D",
/* pixels */
"    ......   .  ",
" ...............",
" .   ...........",
" .............. ",
"............... ",
"........   .... ",
" .............. ",
" ...............",
" ..  ...........",
"................",
"................",
"..........   .. ",
" .............. ",
"................",
"................",
" .  .....     .."
};
