/* XPM */
static char *west_wall_door[] = {
/* columns rows colors chars-per-pixel */
"128 128 74 1 ",
"  c #1D170D",
". c #1F190E",
"X c #271706",
"o c #271805",
"O c #2C1B07",
"+ c #211A0F",
"@ c #2F1E08",
"# c #301E07",
"$ c #321F08",
"% c #241D11",
"& c #281F12",
"* c #342107",
"= c #352109",
"- c #3B250B",
"; c #3F280C",
": c #272013",
"> c #2C2315",
", c #2E2618",
"< c #2F281A",
"1 c #312617",
"2 c #322817",
"3 c #312718",
"4 c #352B1A",
"5 c #392E1D",
"6 c #3C311E",
"7 c #382F20",
"8 c #3E3321",
"9 c #40270C",
"0 c #442B0E",
"q c #492E0F",
"w c #4C310E",
"e c #51340F",
"r c #472E10",
"t c #4A2F10",
"y c #4D3111",
"u c #40341F",
"i c #513412",
"p c #563812",
"a c #5B3B14",
"s c #613F16",
"d c #413623",
"f c #453A26",
"g c #493C27",
"h c #463B28",
"j c #4A3E29",
"k c #5F4017",
"l c #634117",
"z c #664318",
"x c #6A4619",
"c c #6D481B",
"v c #714B1C",
"b c #7A511E",
"n c #4C412C",
"m c #52442E",
"M c #56482F",
"N c #58492F",
"B c #4F4430",
"V c #544631",
"C c #574A32",
"Z c #5A4C34",
"A c #5D4F38",
"S c #5E5037",
"D c #5F5038",
"F c #605137",
"G c #63553B",
"H c #68573D",
"J c #66583C",
"K c #68583D",
"L c #6D5D41",
"P c #705F43",
"I c #716045",
"U c #756548",
"Y c #78674A",
"T c #7B6A4C",
/* pixels */
"588568d88888885568fffjd8843,445ddhhhhjh588ddddd88dhhnnnnjnmmnmMjo$==$=$$=============-====-=-=-==-==-=-=$-=$=-=$===$##$$--=-$=$O",
"88hhdhhjnnnnnhnjnZCCVSZGZ6454nnnAAZZZnZhnmjZAZZZnnAFGAVVFASACFHH=;yyiy9-yiyytytyitqyitwiiwipyeiyiiiwiiiiqyqeyyyewt00$=ttitqqit-$",
"8fjhhhfhnnjnnhdfjnjd8jmCSh4dnfdhhjjjjjnAnnjhjjjjnnCVVVmnZVVnnjmV$q0000-$9;;9-000090q00000000000000q0q00q000099009990$=0090099q9$",
"dfhfhd8dhjnhjhhddhhhffnnmj64hfffjnnnnnnjnhhjjjBhhhhhnjnnVnjjMhjj$q09q0-=t00000099000009909009;009900099--9-999900090$=q99000000$",
"dddhffddfhfjVnjhhhjhjhnnnn54fhjjnnmmmjnjjjjjVVhhhjjfhVjnmmhnnjnj$q00q0-=qtttyqwqqttqqq00000q00000000000900000q0qqqqq$=q090q9000$",
"hhhjhhdhhhdjjjjhhjnjdf8jVj54fhjjjVmnjjjnVhjVVjjjVVnjjVjjjjmjnnmV$q0qq0=$;;90000qqqqqqqtqqq0qqqq0wqqq0qqqqqqqq0q00000==q090q-000$",
"8jnjjjhhhhh88hhhfhmjdd8hnh468hhhjdjjnnnjjChjZZVVZVnjnjjjnmVmnVVV$tq0qq=$000qqtqq00qqqqqqqtqqw0qqqt0q00009009999990;-@=q990q90q0$",
"4hjjnjjjhh88fh8d8dnnhd8hjh44dfhfnjhhhhhhjnjhVVZhnjjjjjjjmmnmVnVn=tqqqq-$;0;909099999000000000000000000000q00qqq00000$=q00qq990q$",
"848h8888f8h888888dhnh88hjh44hh8dffhfddhfhhffhhnnhhhhh88hjnmhjjjn$t00rr9-tyqiiqiqttytttityiyiyiiyyiiqitiiiiqiyyyyqqqq$-q9;qw;000=",
"44788458888f88888dhfdf88d84488d888d648888f8fh8f8dd88h888dhh888hh$i00rr9$0000q0qq000000000000000000qq00q090000000q000$-q00q0;900-",
"4445555444444444478456686888885654444585468668888885454564444448$ir0qq-$qq0rqq0qttrrq0qqqqtttwtttqqqrqq000q0000q0qqq$-q90q09000=",
"nnCCZZZZnhCZGAAZCCCZZAZGGHGAZZGFGGZCnFGLGLLJLLLLLHGGHFGHHLKJLJGZ$t00q09XOOOOOOOOoOOO#OOOO$O$OOOO#O#OO#OO#OOOOOOOOO#OO-0000q;000*",
"ZZAACCZGSGFHFGJGGGHHGGAGGGLHHJHHGKGGLGLJDSLUYIYPLLILKIIYUPUYYULU$yq9rq-XOOXXOOXOOOXXOOXOOO$OOOXXOXOOOOOOXXXoOOOXOOOOX=q00000;00*",
"njjh8nCZCCmmCVZZCmZCChfnjVSGGAVCVACCZVVZZCZDHGZZZZCZGAKGGGSGSGGC$y00rr-#--$-$-9$=-OO--=-;=;---O=---=--==-$O=---=-$=$O=q000q;;00=",
"&&%&&&%&::::&::&&:&>:>>,:&&&:&&::&&:>&:&&&::&&::%%&%&&&::&:&>&&&$tr0rr-$--$---99-;OO--=0;;;=;-O----=9;=;9$O---==9==-O=q00q00000=",
"3444455566655545455565666655544444555845545866568588665688885856$tq0rr9$99--9-09-r$$9;-0;9090;O;000909-09=O9-9-=9=-9@=qq00000q0*",
"8ddhhhjjhf8fhhh888ffdfdfdd88d85d6868dd8dddhhfhhf88df8djjjmmjnj88$ir00t9$0r-9r9t00t$$r0;r00t0t0O0000;qt;tt-$900;-0-00#$tq0qq99tq$",
"d888ddhhd8888dd88658dfhhhhh8fhdfdddfjjjjngjjmnmmnnjnnjnmnmmVVVmn$ir0qt9$009rrr0t0t==tt;trrt0q0O00ty0tt90q=$00r;;q-90#$qt0q0;rtt$",
"%+++++%+%%&&>&&%&&%%&&&%%%%%%&&&&&&&&&&&%&++%%&&&.%++&&&&&&&&&&&$t00tr9#qq9qtr0t0y==yt0tq0ttt0=0yt00tt;t0=#t00;;q-00#-q00qq90tq$",
"&>,,>1113444457454445444544554444444445444555554445556d6dddd66559it0tr9$rt0qt0r0ty=;yt0t0qy0y0$0twq0yq0tt=$00t0;q-00#-tq9qq90t0$",
"4454568888dh88885658658688ddd8888868dd8dddddddddddddhdfhjmjjjhfh$it0ir9$qt0rtq0tty==iyrt0ytryt$0yyt0it0ti-$00t00q000O=q00qq;0q0=",
"%+++%%  %. %%%&%%%%%%%%.%%%%%%.%%&&&++&&&&&%%&&&&+++.%%&%&%%%&&,=tr0tt0$rt00tqyqti--iyrttyyttt$qyty0yt0yt=$q0t000;00O;qq0t0;qq0$",
">,>,>4dhjhh8>&>,,&,>>,543,,454>&14444,56543,4h6djhjnVnh3,31,,>jV-ir0tt0$ri0qttqtty-=itryqyyyyt$tyytryq0wt=$t0tr;q;00O-qq00q00qq=",
"3443hjhnf8hjn8>fn4>48nV5dmCCSGGGj58846CS88548VCmmnjjfmVA444344gV$tt0tr0$0t0qiiiqyy-;ittyyyyyqq$rytyrttqwy-=t0000q;00O-rq0qq0qq0=",
"854jjn8>&%&5jC58jCnnnjhmVVnf8dhCPKV54hCC8864dSMnm51>>,dCZ4,5j6dd$tq0tt0$ti0tqiqqyy-;irtiriryit$tyyytyyrry-=t000;q900O-qq0tq00t0=",
"448nn5&>3>&&5jn&dnjjhjZmmf41,,455nHHddGAd86fgACm34654,>6nV>4nZdf-irrtt0$qt0tqitrti--irtyriiyiy$tyyyqyy0yy==yry00t000$-qq0yt00q0=",
"44nnj>,3556>,nC,&3338Cjnh>>,,4,>,66ZGnSCn84SCZm54684444>dC,48Znh$tq0ttr$ri0qtitrti=-itririiyit=tyyyryt0ty-=yq0w0q000$-tq0yq0qtt=",
"44Vm5,,4VGj4,mZ44444Ajhm,444448d6,,6nGCAZd4FANn5dh8nGV8,8n544nVM-ir0it0$ti0rtit0yy--iryiryityt=tyyy0yyryy==y00r0q00q$=q0rqq00yt=",
",6VV44>5Cfj34GZ4854mZ5mn454nGHm8hd4>4fGCMf2mSSf6dd6GHHf4fCgGCgAZ$irrtt9$qi0rtttryy--irrirtiyit$tyyy0yi0yy-=yt009t000$=q0qqw0qqq=",
",7ZZ54,5AV5fAAV484jZddmh6d4nFFJhjjd5,,6AAV6jCGh8d58LSn86Cn6ZGCCG$iqqir0$ttqqiit0yi--iryyrtiyii=0yyyrtiryy-=tttt0t0r0$-qqtty0qqq=",
"33ZZh5,,VCGGGA544dZV>hmC684hZnFSfhdff644mGC6AGn4d84LJGGGZ545nSVm-iqqyr9$qiqqiirryy--iryirtyyiy1tyyyryytyi-=y0tt9t00t$-y0tqy00ww=",
"3>nZZ65>,hVVj444dZm3,8VMhf83,hSF86MHGGHHfgHCnACh8878HGSV84444VV6$iqqi00$ti0ritt0yy--iryirtytty$tyyyryyyyi;=ytt00tt0q$-yqtyy0qqq=",
"4>4CGm84,&::444jAC4441CZAg514ZHC4fHAFFCCMCmZAmGMffd,14544865jAd4$yttttr$tttryytrri-;ittiryytyy=riyyy0yyyi;=iqyt0t00t$;yqtyt00yy=",
"54>5ZGVf44444fSFZ44d5>hCACmjFFA6,hGAjh54114dVSCGGCd58668d8jZHh4d$yttytr$tirriytryy;9ititryitii=tyyiytiyyi-=iqqq0tq0y$9ytyyt0ttt$",
"484>4VFHGZCCFGCh4dhhf4>hASFZZZj246GGZA66644415jCCGKmnnjjnGJHj4nG9itttt0$tyr0yyttii;;ytiiryitii$tiyyyryyyi--yqqt0tqtt$;wqtwq0q0y=",
"68d5435gVCAAVh42dnjnjd3>4hnng64662gMMd6fjjdd6426nmCGGKFLGSCf4,ZS$ittyt0$tytryittri-;iyiiriityi-tiyyyryyyi;=y0t0qt0tq$;yyyyq0tyy=",
"448d844111334468dfdhfd444,1456gdf42444ugjnhhjd855dfmCCZCj868845f$tiryr9$0tt0tytyyi29ytiirtityi=tiyyy0yyyi-=y0t0tq0wt$-y0yy00yyt=",
"886dddjghhfhhnnnjfgjjgnnnjgnnmCNnjdd6gddjjjgf5dddddhhfdgnnVmnjh89ittir0$ttt0tittyi-9iiiirtiyyi-tiytytiyyi-=itt00tt0q$;ytyyr0yw0=",
"AGGGGGSGFHFKHGKGGHKGAGAGHHKKKPKKIKKKIPUKHLPLLCGPKJGGLULILLPKLHGL$ittyrr$ttt0tyttii-9itiiriptii=yyitytyyyy-=tq000y0qq$;tqty0tyt0-",
"nnmCVmmMnjjCCCVCnmCSCCCCAAAAFGGKAAAFAGGGGFHHGMGAZZSSSHHJGGGJHFSG$tttyr0$rtt9tyytti-9ittirtptip=typyyrityy;-yqtr0q0qq$;yq0y0qyyy=",
">,,,1,,,3,,,>,,>,111,,>>>113,1111,11>>>112121>,,1,,1,11212442111$ittit0$tty0tyttii-;iyyiyypyyi=tyitiriyti-=ytt0rtqqq$;qqwy0ttty=",
"88hhhfjhhffdfhhdjghhhdffdghhdhddhhdghfgfhfdfh5hjggdmgnjnjgghhjhj$ttttt0$ytt0tyt0yi-riyyiryiyii=qiiiyritty;-i0qt0yq00$-ttyt0tyty=",
"455566656856666668ddddddhhdhdddfd6hjdhfjnjjjm68gmnnnmjnnMnnnnjnn=ittit0-ttt0yyttii-9iyyyryiyiy1tiiyyritty--trtt9tq0q$9yqyt0yyyy=",
"%%%%&+%&&%&>&%&&&&&&&&&&&&&&&&&&&&&&&&&::&&&&&&&&&&>::::::>&&&&&=iirrt0$ttt0yyrtii-riiryriiyiy=0iiyytitty;-yrrtrtq00$;yqtt00qqy=",
"&>>,>>,,,21,1222>,,11111,,1144111111144442,144,,24134544411,>>>>$itttq0$ttt0it0iii29iyryryiiyi=tityttitti;-ittt9yq00$0yqty0qqyy=",
"34445445555454544544441,,56655555d86666665656656dd8d8d666666653>=itrtr0-ttt0ti0tii-9iiryryiyiw=tiiittitrt;-tttt9yq00$-yqtt0ttty=",
"45556555d585dddddddddd43468888686hd8fdddhhhhgd6fhhdfhhhhdgghhh4,-itrrq9$ttrrii0tti-riyryriiyyy=wtiittiyti;-ytyy0y0q0$;tqqq0tqyy-",
"46ddddd868dgjghhhhjjjg5,58hhhhhhhfjhhjgjgjjmmmnjj8dd8hgjgjnnVVh5$it0tq0-tyrryirtii;riirrriiiii*rittttiyti;-ttyy0qt00$0q0yq0yqyy=",
"5hhfddffdddhhhggfjnmng546dhjjhjjhhjjjjgnnnmVZCjnnjjjddjjjVVZZZh5$iq0tt9$yi0tiytyyi40iyqqqit0--=--;ttyyywy9=yqyt0qqq0$-tqtqqttti=",
"6hghdffdddgjgjmnnnmnnmd48hjjmhnjhnnjnjjmnnmCCVCnmmmMjVmVZZCZAAV4-it0tt0$ty00iyqyyp;0iieqq=;pzcccza;=;ywri9;yqyt;yq0q$-tqrqqttqi-",
"8hhdddhhdhngghgjnmnngmf48jjjnjjjnmCnmnmmVCVnmCCZMCVMVZAZGVZZZZV4$tt0tyt$tytryy0typ;;piy4=lxpewweiazl;=rry;;t0yw0ttq0$;r0qq0tqqy=",
"6hjddfhfhfnnnnjnmmmnfnd46mnmfhjnVVnVZnhhnjVjmZCZCCCNZZZVZCVVBVn4$ir0yy0$qy0tytqyii;;ii;;lp0-*0ew==0yzt=wy;=tqyq0qq0q$;qqtqtiiqq=",
"6fjhhgfddjmmmMmMmmmnfC646nnnmjjjVCmCVnjnmmnVmVVCCSnnCCZVVZnBnjj5$iy9tt0$tyt0yyryii;;e;0lw-;0;lkxw;;-waw*t;=t0yy;tqq0#-qqt0qiqqq=",
"6djjjhfddgmmmmnmmmnnnSf45jVjnjjjVVZZVmnmmmmjmmngnCZnCCZVVZVVVZj5$ii0ttr$tytryyriip;;w-lw=0w;;ekei=;w*wk-0-=ttyy0tqq0$-qqi00iyqq-",
"688hnjf6hgnmmnnnCVmnnAj46jmjjBVVVZZCMCZCVZMnmCgnnCCVVZZVnVCVVCV4$ti0qy9$qtt0yttywp--*ee-0lkawqww;pkkw-0a===iqqy0tq09$9qqt0qtqqq-",
"588dhffhggnnmnfnmVmnmCg48dVmVjjjZBVVFAACZZCmmngmmMZVZZZVjVmmCCj4-tq00t0$0ttrittywk-**k0;;paww**-;wep09;i0$=ytty;iq00$9qtt0qiiqq=",
"866dgjffjgmnjmggmMmmjVj45hnmCjjBVVVBAVZCCZCmmmjmMANCCMCCmmjVVZj4$ttqqtq$tty0itrywk*#ww-;*wk;*wkk--ww-;*;w@=yyyy;ttt0$-t0t0qttti$",
"6ddhgnnjgjmnnjgnnMCmjMh56dmnCCVjnVVVVjjVmSAVnjnmCAGMmmmVVmmCZVn4$ttq0t0$tty0yttirr2#ew2ek;*;kk;kk--;kw-wy==wtyy0ttq0$;qqt0qitti-",
"68ddggggnhfjnmghnngnhmh45djjVjnVnhhnVVVnmZCjjVmjmmFNmmjjjVVCZZh4$ytq0tq$tty0yttiwk**e;eewk;;;xvzw;;wwkk-i==tyty;tqt0$9tqt0rtiqq=",
"ddddddmgffggjnggnnjnjmg55jMnnnjnZnnnMVnjjVZmgmMmmmmMVnjmjjVVVZj5$ytqqqq=qqtryttirk*#e;we;O*;;kkk;0--;ww;w==t0yy0qq00$;t0irqtqqi=",
"hh8dd6fjjhfhgjjgjgnjhVg45hMjnZmjAAnnMmmmjnVmmnmmnmmmMMmCmjjVVVd4=yy0rtq$trt9ttti;kO*k;;;;kz;w;wwk*zk*;;;w*$wtti9tq00$9t0iqqtqtq-",
"gjhhd6dhjjgggjjnnjmmfCg55hVnnjmnCCMmmnMmjjmmmmMMmmmNCmmmBjjmnCd5$itqtyq$ttyqtttik;OO;w;;vkw*;;;;*Owzv;*kq$*qytt0qq00$9qqitqqqqq=",
"fjhgdhufgghnjjhjmCnjgMg45dnjnVmmCAMnMmCVnfmmnmMCMmmmmMCjVjVmnjd3$yyqtyq$tqyttttywk*@;;;ck;oO;***OOO;kc*;q$$ttqtqqqq0$9t0tqrtqtq=",
"66hjfgnhfnggngfgnMmghj5446nnCVVjdhnjmjnCVjjmmjmVjmgmmjmmjjjmnh4,=tq0yt0$tqtqrttywk;@**kk*@;*;;;;;*;O;kk;=$=tqqq0qqqq$-qqitqqqtt=",
"1148fdjhddgg6gn8djfn85443458fjj555hhhjfh644u6445666dh6hgjjd65444=itqytq$ytttqtqtpp=O@ylwOqeq*****kk*Owz;@@*tt0y0tyq0$;tqttqq0qq=",
":&&&>&&>,,>,1411121244444433444443,44441,,>,,4241455444445544544=it9yt9$tqttqtqtyp;O&aw**0wq;;ww;;ww**kk@O=qtqy0qy0t$-rtiqqqqqt$",
"&>,1414444556ddd6ddd85ddhhdjhjggfd88hd664444146dddffdfdffhggjfjj$ty0tyq$ttttty9yyp-O=awO-*-*;kkw;;***O;k*$=yy0y0qtqq$;0qttqtqqi$",
">,dhjhfffgnmnmnmVCAZCCjMCCCCCmmVCZHHDFCVg8446dgnACNAAAAFDFKHHGPS=tqqtt9$tqttry9tyi-#;yr#ww--;w;k;;;wwo;k=$=yq0yt0trq$;0qiq0qtqt-",
",4f8d856hhjfgghhjnjjnnVjjnnjjjjjgnmnCjMFHj54hnVFNNMnCmjjj8dCCGAC=it0tt9$qqy0ryqtyp=O;erO-0w;-;;;*;kw;Okw=O=yq0iq0qqq$-qqqi0qqqt=",
"48hd8d8dhhjhhffhjfgjjmVmMjjjhmVjgmVCmmjmMCd5nVCAAACCCMmnhhmmVnnM$it9q00$ttyrtt9yyi=@*wwOO-;wkw;kkw;;OOwk=$=iq0iq0qtt$-qqtt0qtqi=",
"46dd8dd8djjfhhfdhfgnmjmVjBnjjVMmmMmMCmCjjGf6jMjMCCSCACmnjMZCVjnj=yt0tq0$0tyrtttyty;##we##O#-*;;;***O##k;$$=rq0yq9t00$;qqttq0tqt=",
"458d88ddddfjffhfgVmmnnjVjjCnjmMnmMmmCmmMmGd6fjmVmmCmCAjfnACVnnnm=itqtt0$tttttyrywi;#Owa=***OooOOOO***-k;O$-iq0yq00t0$9ttqi0qtqe=",
"458ddddddhhhggjjnmnnjjjhjCCCmMmmjmnmnnmggAd5dfnngMnmCVmnnCCmmjnn=yqqqtq$qqtqttqtyy;=@0ew=-=-;=@@*---*kw****kt0tt0rq0#9qttiq0qtt$",
"488ddddd8dghfgfgjnnnnjnjnMCMmMmjgjjjnjgfjCu5fmjjgjnmVmVnnVCmVjnm=tqqtq0$0qt0ytqyyi;===qp=-;00;*---;*;kwO--*wqqyy0q00$9qqtq00qqi=",
"48dhhdddfddduddfjnmnjfnmnnmVmVVjgjngnmgffVf5gjjjjmmVmCZVnnjmnjnV=yt0qt0$0qr0ttqtyi--=O;ra;=tyw*;;;-;kw-@--*r0ttq00q0#-tqqqq0qit$",
"48ddfddddfff6udhjnnnjjnCZZCCCVMjjjjjnCMg5md5hVmmnmnVjCZCCmnjnVnn$itqtt9$0qtqttttyi;-0=O;0ay=-;*-*-kk;-O*;-2wq0wr0qqr$9tqii00qtt=",
"5dd8fddhh8666ddjnnnjnnngmVCmCCmmjVVjmMnjjM556CCCCjmmVZmCZmmMVnmM=itq0t0$0qtqyttiyi;-0;=O;qwkkaakkkk**O*-0;=wrryw0qq0#-t0tt00qet=",
"48ddddhhddddddhjnnnjmMnnnmmmCmnnVmmmmmmnmj54umVVVVmVVmCCNmCmmCZm=iqqtt0$qqt9ttqiyp;;w;-*o#-00qq0w;;OO*;;w--w;rw00t00#0iqqt0qqqt-",
"45648hdd65ddhduhjjjVmMjnnmmmmmmnjmmmMmnnmh55djmVVVZVCCCCmAZmmCmV$tqqtqq$r0tqtttiyy;;yr;;*#oO#*==*OOO*--;e-*wrrww0q00$9tqqi0qtqq=",
"465dhhhjj6dhjdddghhhjmnnnnnmnnjjjjmBjVnmmn65ggVnBVZCCCVVVCmMjmmC=tq00r9$qqtqtttyyp;;ytr;;;**@@XOO**-;;;we--e0rww0q00$9qqqq0qqtq=",
"46d8ddhjmjdgjhdhjhffjnjjjhjjmjnnnmmjVjmnVC64djhjVmCCZZZZAVCjnngm=y0tqqq$0qt0trtiti-0tttq0;;---O=-=-;;0ttq-=i0q000000$9r0ti0qqqq$",
"26dfd8djjjgggjgjhhddjnggfjgjjjnngnjmmmjnjm54d68nnnmVVmVVjVjjmmnM$iqqqq0$ttt0qttiii-9irtiq00090O;r0ryt0tyi-=t0qwq0000$9r0qt0qq0i$",
"16dhddddnjjjgjghhddhgjnnjhgjmmmjnjnnMjnnjV546jdhjnnnjjVjnnnjnnmn=y0ty09$0qtrqtiitt--ittittityt=0yrtit0tyi-=t0qqq0qt0#$r0qq00q0q$",
",68dhhd8djjgjnhhfddhgjmjnjhnmjVnjghnjnnnCj5,6jnhmmnnmVnVVjjhhmnm=y0qtt0$qqtr0riiti$0yrqiqqieyy=rytyit0tyi-$q0q0q9t00#9090q90q0q-",
">4dddhdddhhjjjjgh8fhhjjVnnnnnjjjjhhjnnnjV6448jhjdCVjVnMCVnjhhnmj=tq0tq0$ttq00ttitp-9itqyqtiiiy$qiyyit0tyq-=y00qq9rq0$9q0qq90qq0$",
">44hgddd6dghhjhhdhgf5jnjhnnnfjhjjhjjjjnjf6,44gjghjmnjjjjVmnjjjnn=qq0qt0$00t00ttyti$$i0ytitiiit=qittiy0tyi-=q00qq9q00$$t0qq000qq$",
">>,48jdd6658dhffhhd658jnnnnnjjjhjnhhjnd65444448hhdjh855jnVmnnnjj-y0qyq0$r0t00yttii-9iqyyttptit=tyyyiy0qii-=q00yq9r00$-t00q00qq0$",
",>>>1441>1,,44544111144454d6dd8d84454544444444348644444445564455=tqqq00$t0tr0ttytt$9ityytqiiit$qytyyy0wiw9=q0qq09t00$$t0qqq0qqt$",
",4>,344444314443543,,,,,>,44445454455444d5565555555568u55444,,>,=y0ytt9$qqtq9ytyry$9iqrttqittt$qytqit0tyy-=tqqq0-q09$=q0qqt9ttq=",
"hnjjhnjd8f8dhgjhjVd854,3,4jBCZZmGGSSCnjmGCCmMmmnAhnmZASSCnMCn84,$y0qtq0$qqqq0iytti-9iqqitqtiii$qytqyyqtyy-=q0qq99qq0$=q0qtr9qtq=",
"hddf88d88hjhhhnmVjjZm5434Vjh8VZAZZVVmCAAFCVVCCCmmnnmMCCMmmCCZGd4$yqqyt0$q0q09yyqri$9i0qit9iqit$qyt0ti0qyt==q00q0-q09$-00qqq9qqq=",
"hfd8dhdddgnjh8dhjVVnVm54dhjjhhjCjmjjmmCCZAVVmCnjnngmMNCCCmCGCGj4=y00tt9$q0qq9qttrt-9tqqtt0itti$qiyqtyy0tw==q00q09q00$=q00qq9qqq=",
"fhdhddhjhjjjhjhhjnVVnm84hjBjjhjjjjjmjjjVmmCnnjjjjhjnjjnnjjnMnnn4=yqqqq9$00qt9qtqtt$9iqtttqiqtt$tyyqtyt0tq==q90q09q00$=q0qqq90qq$",
"hhhdhhhhgfhjghgnjnjjnm74hhjjjhjBjmmjnjjjjMCnnnjjjnnjfnjnfjnjjjh4$y9qq09$0q0t9ttr0t--t0rtt0tqqi$riy00yq0qq==q00q09090$-09qq00qq0=",
"dddhghhjdhhhhhjjhjjnjn54dddhdjjhjjjjhhhjjVmjjgjgnCmMjnjmnnnnnjh4-y9qqq9$0t0t9rttrt$-tqqtq0tqqi$tqyq0y0qqy=$q00t0;t00$=q90q09000=",
"hhddhhhhhhhhdhjjjhjjjn848hhhjjhjjnjBdhhhjjnjngjjnnnmmjnnnnmjnmj5=y9y009$q00t90ttqt9-tr0iq0iqqq$0qiq0yq0qq=$t0909-090$=q90qq09qq$",
"ghddhjdfddhdfhjhhhhhjn43dhfhjjnnmnjhhhhjgnnngnggnnnNnnnnnnmjnnn4=q0q0q9$000t00qr0y=-y0qy00yqyq=0ti00tq9qq==q00q0-000$=q90q09009=",
"gghhjnhdfhh8fdhhfdhjhj4,8ddjnnnnnCnjjnnjjnjggnmnmnmnnnnnjjnjnjn4=y00q09$qrrr99tq0y-=t0qq00yttt=0qqq0qt90q=$q0009-0;0$-q00000000*",
"fd6ddhfhhj88dhhdfffhdj44ddjnnnjnnnnjnjnjgjnjngmnmmnnmnmfjhnnnnn4=q000q9$t0rt0;tq0y=-y0wy00w0qq=0ttq0qt9rq==w09q0;000$=0090q9000=",
"ddddddd8dd88dhhhhhfddh44fhjnnjjjnhhhnnmmmjnggnMgnmnnngmmnnZnZZn5=q000q0$009tr9qqqy-=i0qq;qy0y0$;qqq0tt;0q==q0009-q99$=0090q0000=",
"hdd66dd8d88hjjjhhhhdhj43hjnhjjjnnhjhnnmmnnnggmNgnnngmngnnVmnjCm4=q000t9$q00q00t00y=-q0q09qt0t0=0qtq9q0900-*00900-099$=q9-00;990*",
"dfdgdu66dddhhhhjjnjhhj44hjjjjhhdhfhhggnnnnngnnmmfngnmnnfnnjjhmj4=qq00t9$q0;t09tq0w-=q0qq0ttqt0$0qqq;qq000-*q00w0-q99$-q9-000000=",
"ddddud65688ddh8fhhjhhn44hhhhhhdhhfhjgfgnnnhnnMnmngmnnngnhjhhjjh4=qq0000$000t09t00y=-t0q00ttqq0$;tqq9qq900-*w0000-0-0$=q0-000000=",
"ddddddf68888dddhjhhdhn44fjhnjhhhhhhgffhgfggnMmnmnnnnnggfhhhhnmh4=q0000;$0r9000tq0y==q000;tq0t0$0qqq-qq000-$000q0=q90$=q0-90000q=",
"fdddfhdgdd86ddhhdhdhhh44dhdhjjhhghjjjdfgfghjnVmVnnmnnnngffnmjVj4=q000q9$099r99r00t=-q000;qt0t0$9qqq9q0000-$0;909=099#-00-0q0900=",
"dgddfhhhd866ddfd688hh84458hfhjjjjjghjngnjmnnnmjjmnmnnfnfhnnnmmh3$qq90q0$00;rr9tr00==r;q090q00;$;qqq-0q000=$00000-099#-00-00000q$",
"8ddddhhdddddhhffdddddd3,58djhjgjhnjhdhjnjjjgnmnjnnnnnnggnmnnnnf,$qq900;$00-0;;r90q==090q;000q0O;00q-0q000*$09;09=09-#$00-000000$",
"ddddhfd8ddhhhhjjddhfd5>>466hhjhhhhfhhgjjnggfgjnjnnnugnfnmmnnnjd,$qq-q0;$999r;;0900==q00000t900$00q0900-00-$q0;09=0-9#-00-000900$",
"86d66444,,3446d68d653>>>,5568fjjj565544hjjnmhjjnmnnnnffngjnff64,$00900-$;;-0990000$-q;00;00000O;000-0q090=$09999=0-9$=00-909900*",
"&&&&&:&:>>>::&&:>>>>>,,,,344444413,3,,1,1>,>,,325544425544425444$q0-00-#r9-r--qq00$$0000;0q000$9000-909-0=$0999;-0-9$*0099q0990=",
"&>,,4444444454444554554656gddd854566hh854543,,,32446566565454244$q0900-#99-0;-r090$=0;;0=q0;;9O;000900900=*0;99;-9--#*00;;09900=",
",4hhdjjjhhjhjhnnjmjnmnnZCCAVmCmZGCVGKSCCZCm64,46unSNmCZSNCAACMCC$q099q-#99-0;-r9-0$$0;;0;00000$9000-00-90-$0--0;-9-9O-00;909-00$",
"38dhhdd8ddf8fhjd88dddfhhjVVjjjjnCmCmnVVjjCSFh46fmmmVjmVjCmmVVCCn$q0990-$-9;9--0r90O=00;0=r0000$0099;00-00=$0-;0-=9-9O$q09909900=",
"68ddhhhfdd8d8fhdddddddhhjmnnjjhhjnjhnjjnmmmCh4hjjhjjhhnVjjnCnjjj$q0909-O=;=;=-9-;;$=0-;;-99;-;O;0;;=00---=@--=--=--=#=00-909900*",
"48dhhhjh8dh888jjhd8fhjjjjmjVjjhhjjhjjjjmjVnmh4dnjjjnjjjVmjjjjghh$00900-$$$$$#$$$==$$$$$$$$$==$$=$$=$===$=$@$$*=@$$$OO=00-909900$",
"588fjhhf888f8d8dhffhfhjjjfjnnhhhhhjjjhjjnnmmh4dnjjnBjnCnnjfddghd$q9909-$q0q00qrq000000090r000000009;0q;000;00-;;0-99$=09--09900$",
"4ddddh888d88dd8dhfffjdhhfdhfhhjjjhjjfnnjjjjCf4dmjjVjjnnnnhhfhhhd=q0909-$qtqttrttwqwyiqyeyyeytywwttyywyywytiqwwwwqqq0*-00-909909*",
"5dddd868ddddhddfhffnhfhh8dhhdhjjjjjdjnjhjjhVd48nBjjmjnnjjddfhhhd$q0900-$00q00qq0990-9-000000q0q0t0qq000000q00099000q$=00-90-909*",
"5dh8d888fddddhhhhfhhhhfffddfffhhjnhd8nnjjhfjd46nhhhhhhjjjhdddjhh$00-09=$00000qqqqqqqq0qqq00000090009900900900000q000$=09-90--00*",
"5dhhd48dfd5hjjjjhhhhhhdffhfdhhhdhngjCjhfjddjd46h8hhddjjBjjd8hhgg$q0900-$;--0009999-0000qqqqq0q0000000099-----*--=--=$=09;000900=",
"56fdf8dhfd8dhhhjhhhffdfd8hdhhdhhfjjjmCgfjjjnd46hdhjjhhjhhhhhfhgj$00900;$;;--9-0-00000900;0;0000;90990;000qq00rq0qqtq$=q;900;900*",
"58fhhd88ddffhhjhh8d8hdffdhfffdfddjjnnnjdjmnn816jhhjjjhhhjnnjghhh$00900=$qttqqiyqwqqqq0000000;0;9;900wqq00w0q0wr09000$=0=;00;909*",
"5dhdd888dddddfhhfddfhfdhhfhhdfh8fhfjnnhhnjjn648jfhhhhhjhhjhhhjjj=q9000-$00000qqq0qq0ywqq0yyq0ww00qqwq0000900900;---=O=0-9909000*",
"5ddd855d8hd8888dd8dhjhfjjhjhhhhdhjdhhhhdjhfmd45jffhhfhhhjnjjhhjn$0;9009$90000000q0000q0000q000q00q000000099;;9;90900$=0-0000000*",
"588866588d8d458dddfhhhhfhhjhhjhhhhhhhhhf8dhj8,5jhhfhfhhhjhjjghhj$q-000-$-----990000-90-0900;09;-9;09900;00000qqqq000$=0-900-;09$",
"468668688fd5488dd8dhf888fhjhfhdhjnhfhdhfd8hn845hfhdh8fhhghjfhhhf=q90q9==0qq0000;000000q90ww0w000w0rqw0w0000wq00000q0$$q09000;9-@",
"466688ddfh8548888ddddfd8hhhffd8hjnhfdff8fdhn845hffhhhhfjnhnfjhgd$-9900=$00000q00q0000000000090000009;000;09099-9--99$*0;900999*@",
"488ddhddhhd588888ddd88hhffff8dfjjnhdfdfd8dhn645d8dddhh8fhhjjjgjf$=$$$$$O$$===*$===*$$*$$@$*$$$$$@*$$$$$@$=*$$*$$$$$$O@$$**=$$$@o"
};
