/* XPM */
static char *frame_14[] = {
/* columns rows colors chars-per-pixel */
"128 128 72 1 ",
"  c #1D170D",
". c #1F190E",
"X c #261605",
"o c #2C1B06",
"O c #211A0F",
"+ c #2E1D08",
"@ c #311E07",
"# c #321F08",
"$ c #241D11",
"% c #281F12",
"& c #332107",
"* c #352109",
"= c #3B250B",
"- c #3F280C",
"; c #272013",
": c #2C2315",
"> c #2E2618",
", c #2F281A",
"< c #312617",
"1 c #322817",
"2 c #312718",
"3 c #352B1A",
"4 c #392E1D",
"5 c #3C311E",
"6 c #382F20",
"7 c #3E3321",
"8 c #40270C",
"9 c #442B0E",
"0 c #492E0F",
"q c #4C310E",
"w c #51340F",
"e c #472D10",
"r c #4A2F10",
"t c #4D3110",
"y c #40341F",
"u c #513412",
"i c #563813",
"p c #5C3C14",
"a c #603F16",
"s c #413623",
"d c #453A26",
"f c #493C27",
"g c #463B28",
"h c #4A3E29",
"j c #644217",
"k c #664319",
"l c #694519",
"z c #6E481C",
"x c #714B1B",
"c c #7A511D",
"v c #4C412C",
"b c #52442E",
"n c #56482F",
"m c #58492F",
"M c #4F4430",
"N c #544631",
"B c #574A32",
"V c #5A4C34",
"C c #5D4F38",
"Z c #5E5037",
"A c #5F5038",
"S c #605137",
"D c #63553B",
"F c #68573D",
"G c #66583C",
"H c #68583D",
"J c #6D5D41",
"K c #705F43",
"L c #716045",
"P c #756548",
"I c #78674A",
"U c #7B6A4C",
/* pixels */
"477457s77777774457dddhs7732>334ssgggghg477sssss77sggvvvvhvbbvbnho##*=***#*##***************===*****=***===***#***=*****#o#***#*o",
"77ggsgghvvvvvgvhvVBBNZVDV5343vvvCCVVVvVgvbhVCVVVvvCSDCNNSCZCBSFF#-rrqtttu0**rruitututuutqiuuttttttttttt00tuqttrt000r0r08*8ru008@",
"7dhgggdgvvhvvgsdhvhs7hbBZg3svdsgghhhhhvCvvhghhhhvvBNNNbvVNNvvhbN*99=809989##889999899999998=88---898=98880000099900999r8#999899o",
"sdgdgs7sghvghggssgggddvvbh53gdddhvvvvvvhvgghhhMgggggvhvvNvhhnghh*09=8989-0##99888888=898999099999909090998=-88-88988---=o88989eo",
"sssgddssdgdhNvhggghghgvvvv43dghhvvbbbhvhhhhhNNggghhdgNhvbbgvvhvh*08=999980#*99000900000090000qtt000900099q0r09990990988=o990999o",
"ggghggsgggshhhhgghvhsd7hNh43dghhhNbvhhhvNghNNhhhNNvhhNhhhhbhvvbN*99-99989r#=0909090000000090099tq00q0000000q0utqqqtuuttr#9998r9o",
"7hvhhhggggg77gggdgbhss7gvg357ggghshhvvvhhBghVVNNVNvhvhhhvbNbvNNN*09-998880##==----=88988=8888999999q9990009909999r9e9r98#00r809o",
"3ghhvhhhgg77dg7s7svvgs7ghg33sdgdvhgggggghvhgNNVgvhhhhhhhbbvbNvNv*098899890##e099090000r0quqrt09q98998998889999988888888=#99r8r9o",
"737g7777d7g777777sgvg77ghg33gg7sddgdssgdggddggvvggggg77ghvbghhhv#098809=90*=0000r0r0000999900t0ttt00rq00tt000000q00qttt9#9008r8o",
"33677347777d77777sgdsd77s73377s777s537777d7dg7d7ss77g777sgg777gg*90=808800#*90889999999909999989099009900990q00999998988#0008t0o",
"3334444333333333367345575777774543333474357557777774343453333337*098898890##8889e98890009999998e990000trr0q090000009998-#0008rro",
"vvBBVVVVvgBVDCCVBBBVVCVDDFDCVVDSDDVBvSDJDJJGJJJJJFDDFSDFFJHGJGDV*908=09890#ooo@oooooo@ooo++++++o+oo+oooo#oo++oo+ooo++#oo+0r9e0ro",
"VVCCBBVDZDSFSDGDDDFFDDCDDDJFFGFFDHDDJDJGAZJPILIKJJLJHLLIPKPIIPJP=998908990oXooooooXooXXoooooXooooXoooXooooooXXoXXooXoooo+tre909+",
"vhhg7vBVBBbbBNVVBbVBBgdvhNZDDCNBNCBBVNNVVBVAFDVVVVBVDCHDDDZDZDDB=999#09890#o##=#&====o+=*=======#o==**===*==o+===*=#===*#9r9r00+",
"%%$%%%$%;;;;%;;%%;%:;::>;%%%;%%;;%%;:%;%%%;;%%;;$$%$%%%;;%;%:%%%=998=99990#o=#8#&====o#-=-88-=--*#==-8-==-=8o#==-88*8==*#r080r0o",
"2333344455544434344454555544433333444734434755457477554577774745=999=99990#@8898*88=-+&8-899-8-8*#88888-9888##8-898=8--*+r09tr9o",
"7ssggghhgd7dggg777ddsdsdss77s74s5757ss7sssggdggd77sd7shhhbbhvh77*09989098t*#8-e8-9999&=9-eee8e9e-+e9e8e-9e8e**e-008-0-9=otr8treo",
"s777ssggs7777ss77547sdggggg7dgsdsssdhhhhvfhhbvbbvvhvvhvbvbbNNNbv=99989999r##8-89=9999&*ree0t9900-&qteetert9r**e-9r9-9-9-+et9tt9o",
"$OOOOO$O$$%%:%%$%%$$%%%$$$$$$%%%%%%%%%%%$%OO$$%%%.$OO%%%%%%%%%%%#9998009er#+8-89-9999#*reett-ee9-#tt99t8e98t*=0-rr98t99-+r99tq9+",
"%:>>:<<<2333346343334333433443333333334333444443334445s5ssss5544*0908009et##9899=e99r**rerru-0e9e*ttqet9eter*=ee09e-t99-#te9t99+",
"3343457777sg77774547547577sss7777757ss7sssssssssssssgsdghbhhhgdg*0098000er&#9889-099t*=r0trt-00e-*tt0tte9t9r*-0-rre-t998&00e999+",
"$OOO$$  $. $$$%$$$$$$$$.$$$$$$.$$%%%OO%%%%%$$%%%%OOO.$$%$%$$$%%>*q9980099t&#998e-r00t*=trrtt-00e-*tu99tete9t*-terre8t99-+008tt9+",
":>:>:3sghgg7:%:>>%>::>432>>343:%<3333>45432>3g5shghvNvg2>2<>>:hN=09q80098t*&9989=r99t*=tt0tte000e*utett9ttet==t8rt98t8e8&tr8rt9+",
"2332ghgvd7ghv7:dv3:37vN4sbBBZDDDh47735BZ77437NBbbvhhdbNC333233fN*0908009et*&9899-e09t*-ttttu-000-=ttettrr00t=8t9rt98tee8&tt8rr9o",
"743hhv7:%$%4hB47hBvvvhgbNNvd7sgBKHN43gBB7753sZnvb4<::>sBV3>4h5ss=000-9r99t*#988e-r90t*9ttttte000-<urrrrretrt*-tett8-eee9#treereo",
"337vv4%:2:%%4hv%svhhghVbbd3<>>344vFFssDCs75dfCBb23543>:5vN:3vVsd*q90-0t99r#*q99t-e09t*8t9ett-0000#tueruretet*-te00eee9e8#treerro",
"33vvh:>2445:>vB>%2227Bhvg::>>3>:>55VDvZBv73ZBVb43573333:sB>37Vvg=0q0-rt99t**98808r9rt*8t9tt0-t009*rt0rurtttt*-tr0t890908*trr8reo",
"33Nb4>>3NDh3>bV33333Chgb>333337s5>>5vDBCVs3SCmv4sg7vDN7>7v433vNn=q08890990#*08et8r90t*8t9tteettt9*rr0rrrrttt*8ter0-et9r8*trtet0o",
">5NN33:4Bdh23DV3743bV4bv343vDFb7gs3:3dDBnd1bZZd5ss5DFFd3dBfDBfCV=0t88t999q**08er8re9r*8t9tt0et0t8#ur0rrrttrt=8tr00eere98&ttt8tro",
">6VV43>4CN4dCCN373hVssbg5s3vSSGghhs4>>5CCN5hBDg7s47JZv75Bv5VDBBD*0t999qr90**9899-rrer#-t9tt9et00e=ut0r0utttt*8tette-r998#ttterr+",
"22VVg4>>NBDDDC433sVN:gbB573gVvSZdgsdd533bDB5CDv3s73JGDDDV434vZNb*0089tt09r**9899-rrru#8r9tt9qt9t8=rt9ru0rttt*8tere-eteee#tte8tr+",
"2:vVV54:>gNNh333sVb2>7Nngd72>gZS75nFDDFFdfFBvCBg7767FDZN73333NN5=qt89tt99r**099t-reru*9tett9t00te*rre0uurttt*errrt-et8e8#rtt8tro",
"3:3BDb73>%;;333hCB333<BVCf4<3VFB3dFCSSBBnBbVCbDndds><3433754hCs3#0t9rr000t#8r99r-rtet*8t8teettet8=tttettrttt<9rrrreet908*trr9tt+",
"43:4VDNd33333dZSV33s4:gBCBbhSSC5>gDChg43<<3sNZBDDBs47557s7hVFg3s=t090rt00t##9990-t9ru=8tttrettete*tuteuttttu=8erur8et9r8*ttretro",
"373:3NSFDVBBSDBg3sggd3:gCZSVVVh135DDVC555333<4hBBDHbvvhhvDGFh3vD#ur900t9e0#89990-rrti=-rtrtette08*ttreutrttu=8trrreerer9*rtt9tro",
"57s4324fNBCCNg31svhvhs2:3gvvf53551fnns5dhhss5315vbBDDHSJDZBd3>VZ#t09etr0er##999r-rrtu*-tettettere=ttteturuuu#8ttrr-er909=rrrerro",
"337s733<<<223357sdsgds333><345fsd31333yfhvgghs744sdbBBVBh757734d=t09e0t09t##0999-rrru==t9tt9ttrre=ruterttuut==rrrt-ere09*terer0+",
"775ssshfggdggvvvhdfhhfvvvhfvvbBmvhss5fsshhhfd4sssssggdsfvvNbvhg7=u099tt00t=#999r-rrrt==teteette08=tutrrurrtu==trtteerer9*rrr9t9+",
"CDDDDDZDSFSHFDHDDFHDCDCDFFHHHKHHLHHHLKPHFJKJJBDKHGDDJPJLJJKHJFDJ#tt090t00u#=099r80ret*=t9t89tttte*tutreteuuu=-uetueere99*rr9rt9+",
"vvbBNbbnvhhBBBNBvbBZBBBBCCCCSDDHCCCSCDDDDSFFDnDCVVZZZFFGDDDGFSZD#tt09000eu=#r80t8r9rt==rrtertttte*uuuretuuuu==urtueetrr8*rrert9o",
":>>><>>>2>>>:>>:><<<>>:::<<2><<<<><<:::<<1<1<:>><>><><<1<1331<<<=trr9rrr0t#=r99teetet==00t00tttt8=tturruuruu==urrr90t009*000er0o",
"77gggdhggddsdggshfgggsddsfggsgssggsfgdfdgdsdg4ghffsbfvhvhffgghgh#t0090r00u=#099r990et=-r0t0etttue=tuutertruu-8ueuueeur09*tr9rr9#",
"344455545745555557ssssssggsgsssds5ghsgdhvhhhb57fbvvvbhvvnvvvvhvv8ttr80rr0t**009098ret*-90t00tttte=tuttetutuu=8urru99rru9*u09rr0@",
"$$$$%O$%%$%:%$%%%%%%%%%%%%%%%%%%%%%%%%%;;%%%%%%%%%%:;;;;;;:%%%%%#trr90rrru#=099tr8rru=-t9te0uutue=ttuterutuu=8urru90uer9*tr0rr0o",
"%::>::>>>1<><111:>><<<<<>><<33<<<<<<<33331><33>>13<234333<<>::::*urt99r00t*=t98t0eert=-t9t9ttutt8*uuturtteuu38urrt9rtrr9#rr9ru0o",
"2333433444434343343333<>>45544444s75555554545545ss7s7s555555542:=r0r99re0u*=trett8etu=8u9q9ttutue*tttuerueuu89urru80trr9*rr9rrro",
"34445444s474ssssssssss32357777575gs7dsssggggfs5dggsdggggsffggg3>#u0r09t00r*=rr9tt9rtt*8teqytuuque*ttttrtteuu=8uerueeu0r9*rr0rr0o",
"35sssss757sfhfgggghhhf4>47gggggggdhgghfhfhhbbbvhh7ss7gfhfhvvNNg4*w0090000u**r98tr9ttt=et9wettuuq-*tttueeueuu=8uert9eurr9*tr0rr0@",
"4ggdssddsssgggffdhvbvf435sghhghhgghhhhfvvvbNVBhvvhhhsshhhNNVVVg4=urr08r09t*=t09rt9rrt*-t9urrqe-=*&*--090ttui=ettru9ete09#rr00r0o",
"5gfgsddsssfhfhbvvvbvvbs37ghhbgvhgvvhvhhbvvbBBNBvbbbnhNbNVVBVCCN3=t0t09tt0t*=000rt9rtt-8rru98=-plxzzlp-=0uttu=eutru90t0r0#rr90rro",
"7ggsssggsgvffgfhvbvvfbd37hhhvhhhvbBvbvbbNBNvbBBVnBNnNVCVDNVVVVN3=t0t980r9q**008rr9ttu-8ert*elliwttqwplj=4rti=eutru09ter0=ut0etr@",
"5ghssdgdgdvvvvhvbbbvdvs35bvbdghvNNvNVvggvhNhbVBVBBBmVVVNVBNNMNv38ttt09u000*=009rr9rtt*ere*ikw-=&ei-&=9wk8=tu=ettru9eu0e0#tr09r9o",
"5dhggfdsshbbbnbnbbbvdB535vvvbhhhNBbBNvhvbbvNbNNBBZvvBBVNNVvMvhh4=00t09t00t=#0r90r90tq=9q*up0*--wljl-9*-qa--u--utrieruere#0t09t0o",
"5shhhgdssfbbbbvbbbvvvZd34hNhvhhhNNVVNbvbbbbhbbvfvBVvBBVNNVNNNVh4=0r009tt9t#=0r90t90tt=-10pe=eq=wiiie-0-&0a*t=-ttruert9r9=ttt9t0o",
"577gvhd5gfvbbvvvBNbvvCh35hbhhMNNNVVBnBVBNVnvbBfvvBBNNVVNvNBNNBN3=r0009r09r=8rr90rertu==*pq*tjji9qqq-pjj9=qi*=eueuu8ruer9#utt9t0@",
"477sgddgffvvbvdvbNbvbBf37sNbNhhhVMNNSCCBVVBbbvfbbnVNVVVNhNbbBBh3*w0u09r09r#=rr90t99ti*&et=9qwwq-=&=q9ii9-9i=*8uetuerter9#ttt9t0o",
"755sfhddhfbvhbffbnbbhNh34gvbBhhMNNNMCNVBBVBbbbhbnCmBBnBBbbhNNVh3#r0t09tter=#t00r090qw&&uq---q9=-ipw=-qq---q9&9uttt9tt90980tt9tt@",
"5ssgfvvhfhbvvhfvvnBbhng45sbvBBNhvNNNNhhNbZCNvhvbBCDnbbbNNbbBVNv38rr090t00r#8t09r0eq0t&&w--wq9=-iipii&--iq*qq&=tttt8tu9e9#0tt9tr@",
"57ssffffvgdhvbfgvvfvgbg34shhNhvNvggvNNNvbVBhhNbhbbSmbbhhhNNBVVg3#tr09ttt9r##r090e-00t**w-wiwq-qwzclw--piiq9w&=tett8tt998#rtu9t0@",
"ssssssbfddffhvffvvhvhbf44hnvvvhvVvvvnNvhhNVbfbnbbbbnNvhbhhNNNVh48tr09uurer#800909e00q&*t-qq-1-qqipwq-&--q09q&=ttteett9e880rt9rro",
"gg7ss5dhhgdgfhhfhfvhgNf34gnhvVbhCCvvnbbbhvNbbvbbvbbbnnbBbhhNNNs3=rrr9ttt0u#8t0005qq0q&&q-9--jl--9qqq=lp--=90#*t0re0tt90e#rrt8rro",
"fhggs5sghhfffhhvvhbbdBf44gNvvhbvBBnbbvnbhhbbbbnnbbbmBbbbMhhbvBs4=rr09rrt9u##000r-qqqq&&q9&wxpqo-----o-pxe*00#=t0r9ttt908#rtr9reo",
"dhgfsgydffgvhhghbBvhfnf34svhvNbbBCnvnbBNvdbbvbnBnbbbbnBhNhNbvhs2*rrr9trt9t#800rt-wqqy&&q-wcw-.&&&&&&&o-iz=e-#8trr9rtt9r98rrr8t9o",
"55ghdfvgdvffvfdfvnbfgh4335vvBNNhsgvhbhvBNhhbbhbNhbfbbhbbhhhbvg3>=r008ttt9r8#90tt-w-qq&&&1xw-&q&-9---&-&-ia=##=r0re0ut9t9#rtr9teo",
"1<37dsfgssff5fv7shdv54332347dhf444ggghdh433s4334555sg5gghgs55333=r0r9trt0r*=rrtu8t0tt&++ua9&qww-&===wwq&0jqoo-teee0wtet9*ttr900+",
";%%%:;%:>2;>13<<<1<133333332333332>3333<22%<<3331344333334433433#ur09trr0r*=r0rr-tett*+*jt&-999-qqw-9q-&*qioo9te0eettet9&tr09r0#",
"%:><3<3333445sss5sss75ssgdsghhfdds77gs553333<3ys7sddsdsdggfffghh=0r00r0r9t**0rrreeeer&&=pq+*----www---&-oqi*&9w0eeett9t9*tr09u0o",
":>sghggdghvbvbvbNBCVVnvbBBBVNbNBBBFFCSBbh7336sfhZBmCCCZSCDFFFDKS*ur090rr90*=rr00-t8tr*#-iq&q----qww----q+qi*+9wqtt9tt9t8*tre900#",
">3d7s745ggfgffgghvhhvvbhhvvhhhhhfvbvBhNZFh43hhBABBmhBbvffssBVDCB=0rr90000r=*rrr0-t90t*+-iqo0qw-&-99=-ww-oqi*+ettte0tte0-*tr98t0#",
"37gs7s7sgghggddgggfhvbNbNhhhhbbhfbBBbbvbbBs4hBBAZZBBmnbvddbbNvhN=0tr00009r==0t00-09tt*+-iqoo=qwwqqqwq--ooiq&+eutqe0ttet9=t9e00ro",
"35ss7ss7sffgggdsggfvbhbNhbvhhNnbbnbnBbBhhDg4fBhNBBZBCmvvhnVBNhvh=ttt99009r*=0r00-te0t=+=qio&o&=-99--&ooo&iq&+eutte9t0et8*t98r00#",
"347s77ssssgfddgdfbbbvvhNhvNvhbbvbnbbBbbnbFs5dfNNbbBbBCvdvCBNvvvN*00q09t09t=*00rr-tttt=*+qp-*&&oX&$oo&&&&9iq+&9tttt9t0et9*t09rq0#",
"347ssssssgggffhhvbvvhhhghBBBbnbbhbvbvvbffAs4sdNhhbhNVNbhvBBbbhvv#tt009u09t#=00r0et9tt*=o9qi*====&&&1--=:iw-&&9tttt9trer9*t990t0#",
"377sssss7sfgdfdfhvvvvhvhvnBnbnbhfhhhvhfddmy4hhhhhhhbNbBvvNBbNhhb#trt99t00t8#0000-tt0t==+&0pe*--9&&----&qiq&&&9ttut9ttet9*u09err#",
"37sggsssdsssyssdhvbvhgvvbvbNbNBhfhvfvbfddNd4hhhhhbbNNBVNvvhbvhvb8t0tret00t#=r90r8tttt=-=o-qp9=9q-&---&wjq&&==9tttu9tter9*t009r0#",
"37ssdssssddd5ysghbvvhhvBBVBBNNnhhhhhvBnfyhs4gNhNbbhBhBVBBbvhvBvv8t0t99t00r==00008tt0u=--&o-0pp-*&&-=-ji-=&=-1-tqtt9t00r8*u000u0#",
"4ss7dssgg7555sshvvvhvvvfvNBbBBbnhbNhbnvhfBy4yVBBBhNbNBNNVbbnNhbN#tt009t0rt#800009tt9q*-9-&o-9qpkjpjjpq-&o&-q=-tttt9t0er0*urr9r0#",
"37ssssggssssssghvvvhbnvvvbbNBbvvNbbNbbbvNh43shBBNBhNNbBNNnBbbBVb8ttt09r0ru8#99r09t0et=-0-*&o+-09qq--9&oo&--t--ttrr9t00t9*rr09r0o",
"34537gss54ssgsyghhhNbnhvvbbbbbvvhbbbNbvvhf44yhhBNNVBBBBBbVCbbBbN#00t990tet8#9r099tqet=-0--*&+Xo+&1&&&&&&=-et--ttrt9t00r0*r009t9o",
"354sggghh5sghsssfgddvbvvvvvbvvfhhhbbvbvbNh66ffNNhNBBBBBNnBbbvbbB80t099t09r##99099ttqt=-e00-*=*&&oX&&&&==-qet*-ttttet0rr9*r009t9#",
"35s7ssghbhsfhgsghgddhhhhhghhbhhvvbbhbvbvNN53shghbbBBVVBVCNBhvbfb80rr990000##0008errrt=9err9888--*+===-989eet=8trtt9t9rr9#r00909#",
"15sds7shhhfffhfhggsshvfhghfhhvbvfvhbbbhvvb53s57vvhbNNNBNhNhhvbvn=00099r00t#80908rtt0t=80rteete89=&8-8etetttt=etrtt9r00r9#t009t0o",
"<5sgssssvhhhfhfggssghhhvhgfhbbvhhhvvbvvvhb537hsgvbvvhhBhMhhhhbbb=00089r09r#=9908rtttu#=0rr90ttru-=trettttttt*ettuter9rt8#00t9t9o",
">57sggs7shhfhvggdssgfhbhhhhhbhNMhhgvhvvvNh4>5hhgvbvvbbhBNhhggNhv=00090e00t##0908rtrtu#=00u90ttete&ttettetttt=8tett9rr0t8=ut09t0#",
":3sssgsssgghhhhfg7dgghhNvvvvvhhhhhghvvvhN5337hghsBNhNvbBBhhhghNh=e9099r000#=90e80u0uu==etu90ut0te&ttrttt9ttt=errtt9r0rr9#0rr8t0o",
":33gfsss5sfgghggsgfd6gbhgvvvghghhghhhhvhd5>33fhfghbvhhhvBNhhhMhb=090990900##99e80r0rt==err00u09u-&ttettttt0t#etrtreer0r9#trt9t9#",
"::>37hss5547sgddhgs54shhNhvhhhhghhgghvs75333337ggshg754fhNNhhhhh=000990090##900900rrt==0ru90r09re*tt9utttttt=-trtrr9r0r9#u0r9t0o",
">:::<33<:<>>33433<<<<<334377ss7s73343433333333237533333336443366=09e89000u##99090urrt#=00r90u09r9*ttettrettt=8t9ur99t0t8#t0t8t0o",
">3:>2333332<3332333>>>>>>>3633434334433375554444444457y44333>>:>#t0089r090##99080r00u*=r0r09ur0ue+ttetterttt=8tetre9t0t9#u9t80ro",
"gvhhgvhs7d7sgfhghNs763<:>3hhBVVbDDZCBhhbSBNbbbbvZgvbVCZZBvnBv73>=080880090#=99099000r*-r0r09t09t9&0tttt9ttrt*8trtre8r909#00r9t0o",
"gssd77s77ghgggvbNhhVN6433Nhh6BVCVVNNnBCZSBNNBBBnbvvbnBBmbbBBVDs3=000890890#=98089000t*-0rt08009t-&etttttrrrt*8trrtr9r008#t0r8tto",
"gds7sgsssfvhg7sghNNhNh43sdhhhdhBhbhbhbBBCCNNvBvhvvfvnBBBBbBDBDh3=08080009t##98099r09r#=09r080r9t8=et0tt90rer==u9tr99r899#t0t9tro",
"dgsgssghghhhghgghMBNhb63dhhMhghhhhhbhhhNbbBvvhhhhghvhhvvhhvnvvv3#000=80980=#09098r9r0#=09r08009t8&9tttt90e0r=8t0tr09t808#00t900o",
"gggsggggfdghfgfvhhhhhby3gghhhghMhbMhvhhhhnBvvvhhhvvhgvhvdhvhhhg3=t08=00900##89099r9e0*=000089t0t-*9tett9009r##t0rr99r9e8#t0r900o",
"sssgfgghsggggghhghhbhN64sssgshhdhhhhggghhNbvhfhhvBbnhvhbvvvvvhg38000880090##99998r9e0*=00009900t-&etett90r0r==r0re99t809#r0t909o",
"ggssggggggggsghhhgghhh637ggghhgghbhMsggghhvhhfhhvbhbbhvvvvbhvbh4=000=00000##99998r99u#=09r099q0t-#9tttt9r00t=#r0rr890809#r0t990o",
"fgssghsdssgsdghggggghv3>sgdghvvvbvvdggghfvvvfvvfvvvmvvvvvvbhvvv3=q0089998r*&989880990*=090t080rre+9uttr80099*=r9t089r908*r9r909o",
"ffgghvgsdgg7dsggdsghgh3>7sshvvvvvBvfvvvhhvhfffvvvbvvvvvvhhvhvhv3=099=9009r#*9-rt8099q*=0r0r990tt8#9t0tt8e9rt*-tee9-9r908#rrt900o",
"ds5ssgdggh77sggsdddgsh33sshvvhhvvvvhvfvhfhvhfvbvbbvvbbbdhgvvvvv3*99089999r&*9899-099t*=t00t98r0t-#eret9-r90t*=r990-e08r8#9rr999o",
"sssssss7ss77sgggggdssg33dghvvhhhvgggvvbbvhvfvvnfvbbvvfbbvvVvVVv4=990890990**9899=009t#=0e0t99q0r-#ee9te809tt*-r9rr-9re98#r9r909o",
"fss55ds7s77ghhhggggsgh32ghvdhhvvvghghvbvvvfffvmfvvvfvvfvvNbvvBv3=090980990#*9899-099t*=090099r0t=&8qtt9909tt*=t9r0-er898#090999o",
"sdsfs555sssgggghhvhggh33ghhhhggsgdggffbbvvvvvbbbyvfvbvvsvvhhgbh3*099889990##98q9=e090#=r99r8900q-&909tt80990*=t909-9099=@0e0e90o",
"ssss5s54577ssg7dgghggv33ggggggsdgdgghdfvvvgvvnvbvvbvvvvvghgghhg3*990899990*#9899=0990*=r99r89r0r8#99ee98009r*-r900-9999-@09r909o",
"ssssssd57777sssghggsgv33dhgvhggggggfgdgffffvnbvbvvvvvfvyggggvbg3=099889080*#989980990*=990999q99e&t99t99t9r0**q000-8989-@099009o",
"dsssdgsfss75ssggsgsggg33sgsghhggfghhhsdfgfghhnnbbvbfvvvfddvbhNh3*090889099**9889=0899#=099q99r0t-#ee9t98te9e=*99r9-8989=@e9e099o",
"sfssdgggs755ssds577gg73347gdghhhhhfghvdvhbvhvbhvbvbbvdvdgvvvbNg2*089989999*#9899=0999##09998999q-+e98088099e**099q-99-9=#e999e8o",
"7ssssghsssssgggdssssss2>47shghfhgvhhsghvhhhhvbvfvvfvvvffvbvvhvd>*0908-998e*#8899=9990#*09q9-9q99-#898r9-q99q*=q99t=9999-@090098o",
"ssssddssssgggghgssgds4::355gghggggddgfhhvfdghhvhvvvdfvdvbbvvvhs>*099988088*&8889=9990##099999t09=*e98r9-9999*=9909=99-9*#0990eeo",
"75s55331>>2335s57s542:::>4457dhhf454433ghhvbghhvbvvvvddvfhhfd53>&9990-=089*#=888=9890#*0999989e9-#909998e-ee&*e99t*99-8=#998909o",
";;%;%;%;:::%;%%%:::::>>>>2333333<>><>><><:>:>>224333334433314333&9999==099*&8=99*9988#*899q8-q99-+90998-0899*=9999=9989=#908809o",
"%:>>3333333343333443443545fsss744455gg753432>>>23334355454343333=88988=089*#8-98=9989#=08ee--t9-=#99908-9999&*9999=-888=#909908o",
">3dgshhhgghghgvbhbhvbvvVBBCNbBbVDBNDHCBBVBb43>35yvZmnBBZmBCCBnnB=99898=989&&8-89*9889##999988999-#99998=9-99&*9899=8888=#999909o",
"<7sggss7ssd7dggs77sssdgghNNhhhgvBbBbvNNhhBCAg34gNbNvhNNhBbbBNBBv&99898=989&@8888=e=-e#*88e9-8999-&9e898-8889&*9999-88-==#e098r8+",
"57ssgggdss7s7dgsssssssgghbMhhhghhvhgvhhvnbbBg3ghhghvggvbhhvBvhgh=8999==099&o=*8=*==--oo--8-=-889*#888--*--88&&==--*-===*+999999o",
"37sggghg7sg777hvgs7dghhhhbhNhhgghhghhhhbvNhbg3svfhhvhhvNbhhhhfgg&9989==999&o&&&&&#&&########&&&*##***#*#*&##&&*&###&&#&++r898q8+",
"477dhggd777d7s7sgddgdghhhdhvvggggghhhghhvvbbh3shhhvvhvNvvhdssfgs=99898=89q@&8888-e-8e88e98eee8998e889e99ereeee999eee989-#989998o",
"3ssssg777s77ss7sgdddhsggdsgdgghhhghhgvvhhhhVd3sbvvMhhvvvvggdgggs=898988990#=09q0tqqttqqtrrq00tqttttttwuuttttqqquuuitutqq*9989q9o",
"4ssss757ssssgssdgddvgdgg7sggsghhhhhsgvhghhgbs3svvhvbhvvhhssdgggs&98999=989*&--8888-888-88898989989989998888990e9999e9998#e89898X",
"4sg7s777dssssggggdggggdddssdddgghvgs7vvhhgdhs34vdgdggghhhgssshgg&98898=980#*9990999999999998889------===--88-8999898-=-=#989-e9o",
"4sggs37sds5ghhhhggggggsddgdsgggsgvfhBhgdhsshs35g7ggsshhNhfs7ggff*98898=999&#=--889888---8-8899988e999t90qet9999999889998#998-9-o",
"45dsd7sgds7sggghgggddsds7gsggsggdfhhbBhdhhhvs35gsghhgghgggggdgfh&99898=990&&88-=======--99999999999qqt99900qq9000009eq9-#899898o",
"47dggs77ssddggfgg7s7gsddsgdddsdsshhvvvhshbvv725hdghhhggghvvhfggg*08808=999#*099qt99e9qqee909q999908988899889988---=-=*=&+989-9=o",
"4sgss777sssssdggdssdgdsggdggsdg7dgdhvhggvhhv535hdgggghhgghggghhh*99898=889&*999999999999999-=-888889-989=-=-==-===8----=#899-98o",
"4sss744s7gs7777ss7sghgdhhghggggsghsghggshgdbs34hddggdggghvhhgghv*98808=88q*#8-88899899-8-8-8988999999999000009q900909999+889-98o",
"477755477s7s347sssdggggdgghgghgggggggggdssgh7>4vggdgdgggvdhhfgdf*98899=889##8--88999989999999q00099q9q90999099999998898=#998=09o",
"357557577ds4377ss7sgd777dghgdgsghvgdgsgds7dv734gdgsg7dggfghdgggd&99898=99e&#990909099999990e999999999999999888888899989-#999=9=o",
"355577ssdg7437777ssssds7gggdds7ghvgdsdd7dsgv734gddggggdhvgvdvdfs#=9-989899#&==8---8889988999900999999999989999999990898=#-8888*o",
"377ssgssggs477777sss77ggdddd7sdhhvgsdsds7sgv434s7sssgg7dgdhhhfvs++########o+###&#&&#&&#&&#&&####&*#&**&*#*##&**##*#*###+o&#&**##"
};
