/* XPM */
static char *frame_15[] = {
/* columns rows colors chars-per-pixel */
"128 128 68 1 ",
"  c #261605",
". c #2C1B06",
"X c #211A0F",
"o c #2E1D08",
"O c #311E07",
"+ c #321F08",
"@ c #241D11",
"# c #281F12",
"$ c #332107",
"% c #352109",
"& c #3B250B",
"* c #3F280C",
"= c #272013",
"- c #2C2315",
"; c #2E2618",
": c #312617",
"> c #322817",
", c #312718",
"< c #352B1A",
"1 c #392E1D",
"2 c #3C311E",
"3 c #3E3321",
"4 c #40270C",
"5 c #442B0E",
"6 c #492E0F",
"7 c #4C310E",
"8 c #51340F",
"9 c #472D10",
"0 c #4A2F10",
"q c #4D3110",
"w c #40341F",
"e c #513412",
"r c #563813",
"t c #5C3C14",
"y c #603F16",
"u c #413623",
"i c #453A26",
"p c #493C27",
"a c #463B28",
"s c #4A3E29",
"d c #644217",
"f c #664319",
"g c #694519",
"h c #6E481C",
"j c #714B1B",
"k c #7A511D",
"l c #4C412C",
"z c #52442E",
"x c #56482F",
"c c #4F4430",
"v c #544631",
"b c #574A32",
"n c #5A4C34",
"m c #5D4F38",
"M c #5E5037",
"N c #5F5038",
"B c #614F36",
"V c #605137",
"C c #64553C",
"Z c #68573D",
"A c #66583C",
"S c #68583D",
"D c #6D5D41",
"F c #705F43",
"G c #6F6044",
"H c #716045",
"J c #756548",
"K c #7B6A4C",
/* pixels */
".++%%%%+++O++%%%%%%%&$%%%&&&%%&%%%%%%%%%4%%%%%%%%&%%%%++.%%%%%+.lzvllzsslss3a3<ullsssaaallaaaaa3<,<123iallpaaaiilpppsssappssliuu",
"+*60eqqe86%&00eee0eeqqqe7eeqq7qq7680qe066e6e66qq66566664%40q664+CmSCCnCCCCHCvasznnCCCllVCFDSSSMa3<13invnvvnvnzlzlznbvbznzzllalll",
"%55&465546++545555555555545*444*&55445445566665566655666o555455.vllzlllclszCDCCvllzvvvlMCnMmnzMNa11aiallzzlllzlppbzlaszzzsaaaasl",
"%65&554546++55444444*44*5555565565566565554444444445&&4&+455456.lslslsssvvllvbnsaslllzvVnvvxbzbbl<3aaaaalavlaalpupaiiuu22aiaaaui",
"$65&555546++5666650q6656505066q666566665566665655655544%o455554.sallvslvblssssllaaslslslnbzvvzlvp<u3alalsllsaalsplzzliasu3aassla",
"%55&455446+&64565656666905056667666666656676677600eeeqe6$5564q5.lzlvlsssvlaasllslllzllssalvvvllnl2aa3allslssaslzplllzpsaaiisssaa",
"%655554456++&&4&44&4444*44**4555556655666555665556656564+5554q5.lzzzcvsvbsssllslvlznzlvlalaznvvvl2slaalpalaaaaaszzzllllssaiasuaa",
"+65&55544q++6656565776qqqq70q75655554545545555544444454%$96q494.bbvvzsaassslllslvzznzzlllllspzvnl2asusaassssasslllllpllisaaiauas",
"%65&464*56$%66666666666555557q760066666676666606qq7qqq06+566405.lvvzllsapaslvvsssllllszzlllaslslp2asaaauu3aaaasssaasaalaai3uuaia",
"%654464457%%45455555555556565555656666566656606445455454+660406.aasala3iuiassaaaaalallsassaaasisu<2ipi333333uuaaiuasaaa3uaiu3333",
"%554454*66$%4444564566095565554656906666066666666666554*+066400.22332333<333331221133333321112u23<<1222<<<;<<<<<1123333321<<<2<<",
"&555455456+...OO...............o......OOOO.O.........+...605960.nCnCCCCCDCCCCCZCCCCCCCCnnbzbnCSSSCCCCDDFCDNnbvnbVvlvnnnnNNMnvnnv",
"%555454555O . .  . ..  .......... . . ...... .... . ....O009505.GHHSSDJKHFDDDDHFCFDSDCNmvvvbMHHSHSDZJDDHJHDHSNCCCCCCCCCMDDDSCDSC",
"&554&65556O.&+&%+&&&&.o&%&**&&%&+.&&%%&&%&&%..%&&%&%*%&%.6q4660.vnMnvvnNCnbvvnmbvnvvvvssvvvvvnCMCCmVCCCCNNnvvllli3zvnnMncnnvNnvn",
"&555455456+.&+4&+&&&&.o*&******&+o*&***%**%4.+&&&4&%4&&%+069606.====#=###=-###############@#####@=###=######===-;;=========-==--",
"%555&55556%O4&44+444*++4**54*444&o44944*5445++5&554&4**%+064006.2222222221112221<<111221<<<<<<<<1111<1111112221111<2<<<<<<<<<<<<",
"&650*5954q$+**54&5556+%546004559*o999904954q$:64964*044&O095006.puapapspiaalsssiuaaaaasiauuu33uaauiaiuuuuaapuuauauu3u3uu3333uuu3",
"%645*55590++4*55&9555+%0500q49q5*$0099040050$%64505*555&+605q96.lxbvlzlzzllsau23uu2111113uuuuasssaalsu33upssausplsssaia333uu3311",
"%55545754q$+4*49&6556+%650qq4050*$qq9509995q$&q4069*q55&+665065o#####==@X###=-==-==-=#==################@###===XXXX=@##@@X@@X@@X",
"%6594q559q$o55*9&6550+%05q0q55959%qq95q55q40%&q40554q55&+965065.<<<<1111<<<<<112u2211111<111122222211<<<<<<<2<11<<<<,<;,<<:<<<<<",
"%66540595q%+5*4549590+&09qqq49969$qq90090q90%*q5005*0964+095005.uuaapsiupaaaaappsuuuuuu31uuu3uuuuuuuuuuuuuu3uuauuuauu331323uu321",
"%66546055q$+4555&656e+&e9qqe59794%qe9009595q%*q50q5*0954O6650q6.@######@XX-;-@XX@#@@X@XXXX=############@@X#@@==@@X@@@#;<;=####@@",
"&656469050%+55554065q%40q9qq4q5q9%eq90q0qq9q%&q50q540554+095005.a;<<:<,;alvvzxz1<aa,;-;ulu-:<<<:<2uu2<-<<<i32<,--;;3llzzzsu<1;;;",
"$656*6655q++5455&965q%40qqqe55q54%qq90q0qq5q%*q900590565+065005.s<<<1,<szbbzxvznsmv<1;;3lb2<<<uznmmnmmmn3<aa<<aa<>lllsu3snzz<1<,",
"&666&6655q%+544q*65qq%*q00q755qq*%qq0qq0000q%*q5qq49q94*+qq5009oiss<<;abs<-==<sbbbb<3<<2zM2<abMsu211unmbCp13lllz>avlu;---1vns1<<",
"%75646q557%%6540*q55q%*059qq*q099$qq90q00q0q%*q9q0499994+e059q9.bV33<<za-<2<<;;lznbll2,2vv3zMlusu1<<<1pvvSvlbvl<>nvl<<<1;;<vVs<<",
"&666&6655q$%545q4q95q%*q5qqq*q6q9$qq90e0qq0q%*q99q44q994+q00500.Cs<3;av,<13aa2;:vNbnva<3nlvvau<;<11<<-wzxsDl2<:-3Nn312aa1;;<vb1<",
"&665466546%%645q*09qq%*q5qq95q9q9%0q00q00qqq%*q90049959*+qqq500oV23u<zl:,lCCva1;zCnnl3;zbbva2;2<u1u33,,uCszH2<<<3nN3uunCl;-1sn3<",
"&6q546654q%%q450*095q%5q5qq55qqq*%qq9qq0qqqq&*q9q945q955+qqq500.nsmm2zb,,zCDmp2<iCMva<snbzi<<3iuunCZ3<<izn2CN23<<bSau1lCv<=<sn3;",
"%074566656%%9445*9099%*q5qq99qq09&qq50qq0qqe%*qq0q995594+eqq500+nCmvpib3;<uSC3u<uCCn<snvv3<ausp2lCCCa1<ulC23Cv33>vCDssVma<;1vn<-",
"&76450q65q%%54594660e$4q5qq55q5q4&qq9qq00qqq&*q59q55q755+q00500.Cn1<2,zMslCDm<p>uCnssnvviaxnpaa<vSsz331szC2-zCv3<<mSDSCz<1<avb<<",
"%qq46q064q%%9950*060e%5q5qq5qq5q4%0090eq0qqq%4q69q54q95*+009509.vs3u2<<zCHCC2i31zNlvMnvVCSCCCsu>VCs<u<alnn<<<MSl3<>lnvu<<<1sva;<",
"%qq400q65q%%0650*000q%4q00q5qe9e5&0e09qq00qe&400q0990595+q005qq+znliii<-2i32iu<pCvvCmnCnsbbCCb1:zCCzaplmns<3;1mZzuu<,;<331anv<<3",
"%qq550q550%%5556*000e%4e0q090q505%e009qee0qe%*00q0500595+qq05q0o2vNnl33u32u3<upmvCVna1;;:1smmm2;iCSCSmCCn<ua1>2nSCl13a33ulnN3233",
"%qq40qq506%%5555*060r%*000q9eq909&0e09qe0qee&4000q550995+qq09q9.n2lVCDMvlsalbVMCCV3;;<1<;snnBC<<-lSSCCVz<3ssa1<1vCSCvllnMnn333a3",
"&qq557qq90%%6550*q0qe&*q00q50q504&0eq9qeqeqe%4qqq0490995&00q506oC32ulCDDSDDCDCCnu,<<1uaa11sbss23<,<asp2<2uusas3<<sCCSCCCNs<<iaal",
"%q555qq560+&6550*q00e%&q5q05qq009%qqe90q0qee&&q0qq500665+q06506.2as331iplVnnpu11uu3uiass2<11313322-<<<13u33usiau3<1ilvp3<3333aa3",
"&q755qq06e%%5550*090q%&q0q90qq504&qeq90eq0ee&&qq0q590565+q099q5o3zvzzllzlsslzzvnnnzlssscss3uassaslllxzzzllsaspaasapauaallallllll",
"%qqq59q55q%%05504q69e&&q6055qq0q9%qeq09qqqee&*q0qe950065+q006q9.SDHJJKJKHHDDDASHFDZJZDVDDDFJFFDDHHHHSSSHDFFFCDDCSCDSDHDDSGDDSSSD",
"%qq55qq79e%+04604569q&&06005qq0q4&eeeq9qeqee&*q00e59e565&q099q9.CCSCCCCCCSSCMCCmmCCCZCbmmCmDvmDDFCSCVCMnnnCmCvbmmvxmnCnvnnnnnbzb",
"%0065q005q+4055059q0q&&0qq5qqqqq9&eqe00qeqee:&e0qq900005+6666q5.<><<<<<>:<::::;><<,:;:::,,;,;,,,:::>::::;:;;;,;:;,::,;::,;;;>;,,",
"%q6656069e+&0550595qq&&05q95qqqe9&qeq09qqqee44e0qe95q005+q056q6Osaislpplspsaauasppapppslsappspaaaaapaapaiaasiuuuuuu23uuuuuu3333u",
"&00046006q+&q6565*59q&*9qq57qeqe9%eqe000eqee&4q0qe59q005+e050q6.ssszzzzlzzsspaaapppaappppassspssslzzlslauaaai33uuu3aaaauauiaiau3",
"&69046006q+4655qq4q5q&*q5q2qqeqe4&qeeq9qe9ee*4e0qq55e005+eq56q6.=###=#==###@########@#@@@@@@######X#@@#####@===####@#@@@@@@XXX@@",
"&q0q55q60e4+q55q9500q*4q5q9qqeqq9&qeee0qe0ee&*eq0e50e005+6q50q6o--:<111<<<<:;<:,<,,,;;;-;;#,1<<<<:;<:<,-----<1<;;---;;;------=;;",
"%06055q06e+4q65qq40qq%5q5q9qqeqe4%qqqe9000ee*4eq0050e0054q65006.,<2uuuw2222123aa31222232uuu321w11222222<;-;;<1211<<<<1111111<<<<",
"&60q55q06q4+004qq5qqe&5q5q5qqe889+qqeq90e0ee:9q90e55q005+0060q6O<uuaasspiaassszlsuasiiaaa3uuawiu3uusaiuu1;<1allsaau3uaauuau1<33a",
"&e6055666q++664q99qqq&4q9q9q88885:qqq090q0ee&4q90e500006+0065q0.2vlzllsszllszzlppssszzszsppssassllilzssa1<1slsssaaaassaaassuiusb",
"&86e64666q+&0650q560q+4q78778**>++&**0908qqe**e9qq59q665+eq65q6.2zzlzlvllzlzbbxsssszzzxssssxBsxvlvzlzllsu<izlllsszlzllliaasasazs",
"&66e65q65q+46650q50qq45028**&9tgjjhgr*%0q08e*9eqqq99q0q5+q6660q.2vzzzlvnvzxzbbVbzszzbzbzsvsbsvsslsulnzlvu<azzlvlplzzlzliasppplls",
"&q06556q60+46650q5qqe45588$*ffr8000etht&97ee>5eqqe95q005&q665q6+anbvzznnnbznbzlvxbxbxsxzxxsxbbsbvnzbbvsba<zblzslzvvlzsiaiaaaasss",
"&qq666q66q&+6656050qq+50*$tg8*&$0r4%%9eg*&7e*6eqqq5qe5q9+0065q5.unnvbvzvbbvbbssxzbbzvxzvxbsxsbvvvxzbvzvnu1lbzlvzvzzlplaslpapalll",
"&q6q65665q+&6056999eq&50$tt7***8gdg55&&7t**e**e00e00q909+qq65q9.unzlzvzzvzzvbppzxvllzzxzbxsssBvsbllzlbvBp1znzlzxxzlliplzlvsiplxl",
"&600650050+460550900q44&*t**7*>88rr5*9*%6y&7&*80qe50e905&qqq506.3ClslzlsszxlbnzvzzzbzlzvbBbsuapsllllsvbma2lvslzzlzlppsipllvzppss",
"&76055065q+400560900e&&+t7$7ddt77775tyd9*7e%&*r0ee50e9q540qq506.aNvllvzszslzbvvvvzzzzlzvvbbsaassvzvllsxbs1svllvsslsaapppllszllaa",
"%q6066e65q4+00660590e&+08**888**&$$76r89*5r&-9e9qq50q505+qqq5q6Ouvszlszxlbzzzvvllzzzzzzzsxbbsasszzlsspsba1plsssslllllzllsllslssa",
"&q6q55eq9q%%60600590e%+e7&**7***tr8&*77***7*$*e9qq4qq965%00e5qqOuvlzllzzvsvvvllllzvnzllvvzznmzssnbzlsssva1plsplzlllzzllzsslzssss",
"%q0650qq5q%&605066600%$q5&e7***trtrr$**t7$78$*e0qq9qq594+0qq50q+2zixvlbzzlznblllzxxzzssssszbnnzzbnVxsllna1alpssvlzlxzllzlsllllsl",
"&0665qqq5q%%666665607$%8*7r87*78jkg8**rrr778$*77q04qq905%0qe5q9+uvilznllzlbbblzlzzlllllssvbbbzvxvxvxpllns13aaslslzxvvxzvzlissssl",
"&q005qq057%&665656606$&6*675&&77rt87*$**77*7$>79q99q0594%600506.3zlzxMvlzzblxzvzssplslllzvbnmvbzMzzlslzba<usslsallvlzlxnllsslszl",
"&0065qqq90+&066659000+$7*5&5gf&55577$gt****7$$77q50qq504&60q506.pllxvnvzvzsalvnBnzllzssssznbbblsxxbxlsbzu<ussvzslszlllzlsaaaaall",
"&6q6470q6q%&666q46e00+O76&8jt7.&5***.7tj*$77$*77050q0905+0q0506.alvvnvsszbzlpvbbzvllssssszsvvvxxsszvbllxu,1pzllzlzvlllllzlsiaalv",
"%0009qq050%4660q40e0e%O557j8&..$$$$$$.*rj***$*77q90q0504&qq6505.ulnnbblalzvVsvbxlllsipllpzzlpzxsazzzxlzv2,<uzvzzlsssllvlliplslls",
"&0664qqq56%&660050900+O%&jr&$5&&*55*$*$*rg$$=*7*090qq505+qq0505o2plvvblslslauzlspsplpsszzslvzzszslxlllls<<<<2illllllzllslllssaas",
"&0665q0q0q&+q0qq*q0q8$.=rt*$778*$$**78*$6d9Oo*q0050q0605+009565O<2usaaaplzluppiauauiaalalszvxxzxsulzp21<<<1<<<32331u2<<<<;;-:;;:",
"&qq65q006q+4060q*q907$$$dr$**77*778*777$%7r$o4q9669ee5e5&0q6506.<,<<<<<<<<<<<<<<>;->::-;;;;,><<<<<<<1111<<<<<<<:::,--::,;;-=---;",
"&606606q504+606099007$$&t7$$&&&*r88*&$&&.7r%o9q0069005q5+q665e6Oiuuauiau222uu12322222<>>;;><<uu2uuaauuuuiuaaui3iu3uu12uu2231<;;>",
"%006560666++0q66*0*00%$*87$8***&787****7.7e%o5eq009e0504&q66606.nCCCMbvBmbbbBbzCnCCbnlu<12zmmbbmBnnmbCmVCZmmBmCVVnBxxzvvMnnvu<:<",
"&6q656965q++6006*9697&$*r7$*78*%***$985*.88%+9qqe960q504+qq6566OMmbVbzxvxznnzslzbnCCmCl13vMzzlxlvxzvxsnnzsllzzllllpuuaapauaaau><",
"&6q656665q44q06q*q5q9&.*88.$*588778r79&..88$$4eq099q0605+e6566eOllllplzzzzxnvllzlzbCmCB22bzzbzbvvxbbsvzzvllsslvllllllpsaaapsau21",
"&0qq650950+46066*q697%$$7r$$.$******%$..%r8$o9eq06600665&0640q6Ovslsssszbnzzzslllplbmnv22llzbllzszvzzvvzzlsszzzlvsslpilsuisslaw2",
"&66q56005e&+0500*9qq8*$.7r*$%$. ...$.$%O987$$4qqe95e0606+055006Ozxzvxsspbbbvllllvzlnvnx21allxlslszxblzsxllssxzzvzzlsalllppissCna",
"%q0066q65q++00065qq5e&&.588$&&&&$$$&$**$r7*$$5qq00500905%e65600+llzzvvvzxlzzlzzlzvsbnbl22lvzzzllslzzllllasissallllvlzlllsppaslxa",
"&q0q65q65e&&6660*qq5q&&$$7t5&**9$$****>787O$%5qqee5e00q5%065900Olllssszllvllzzxvlssvvnl32svzvlsissszzzlllllslsalllllvzlllpaasas2",
"&66666q660%*06604qqqq&*%.*7y5&*7*$77*&8r6&.*&5qq0e500905%e05600Ovzzsssassllzzxvxlzbnbbl12szzlxzppslvlllvllssszpsslllvllllsspaasu",
"&66855066e%%66659qq5q%9*$.*6tr*&>$&$*tt5&+%9&4qq0e506005%006600+vszzlllszllzllvspxbmvbl12llvszblvszzllllvlszzssssalslllsslsssal2",
"&q66650960%*66564qq5q%9*%%.&57tfttyyt7*$.%*9+5q0qq5069q6%e065q0.zzzzvzzzzzllvlllplmbvzv12lzallzbslsssllllzlzlsssssslsssaszzssal2",
"&08e65066e%%55q950q9q&49*&%..*55777*5&.$%*90&5q0q05q6605%q005q5ovbsllzzlvvxvvvlsaznblzz<2plslvvxllbzssszllsssssssaalllapzllaaisu",
"%660650666%%50q59qq9q%*95*%$$..o$$$...$$&49044qqq05q56q5%q665q0.xlzllllbvvlvbvzlszllzvz<2sszxvzzvsnbxszlzlslllsszsaspa3pplsauusu",
"&06656006q%%65594qq0e&*q55*&%%+$. $$$&&&9990&4qq0q6q90q5%66q4q5Oxvlxzbbnbvbbvlzvllssusu<<sznvvzzzlbbvzslllllzvllzspsuuaauuslappu",
"&600550660%&65645q00q&*09q4944**$.*&**5*9q6q&5q9qq900604%q5q5q5ozzzzvbmbxzvvllsllssaa2<<<2lvbxzzllxlzzslzszzvxbzlpppaauaiuissaa2",
"&660556660%&65646qq0q%*900590594*$***6969qqq&*qqqq5056q5%q574q0.xxzvlzbvzzllsssslslpus3112szzzlllszzzzlszvzvvvvvlpspppaapuuiuaa1",
"&666450656+%9464qqqqe%*00q99qe5e*$799qq9qqqe%9qqeq5006q4%0674q6.zssnvnnbvzzlllsslsaapl3213lvzzzlslllzvzlzlzlbxsslaiapasbxs23auu<",
"&666550966+%55040qqqe%*50e46qq6e*>q79qe66q9q&9q9q0906004%q0q5q0.ssznnnbzlzzslsssassszl31<1uvzllllsllllplzllvvvzlzsasaasvzlp3ii1:",
"&656550650%%56646q7qe%&6qe5qqq5q7$q008e09qqq&5q9qq5000q5%0q0506Olvlnmmlzllzzlzlpslzslz3<;13slzssspllzsalllzzpbbvzvzzllzvzlzsau2;",
"&656555560%%55045q6qq&&00q50qq6q*%q890q99qqq%*qqe6950575%q005q6.lvxbnblllsllllslllvlzzu<;1uapsssaslslpiallvzllzzvzlzlzvvsslpu<1;",
"&666550696$%46046q00q%&50q56e65q9$809eq9qqqq%5q9q00505q4+6604q6Oilbvnvllsu3vvvvxzxmvz31<<;1ilsusllsllzpsslzz2lllaszssszlsss121<;",
"&665450666+&5505qq6qq&&06q56q65q9$qq9qq79qqq&*q6q005q0q5%q6q506.<<2iau31<<<<2uuiu1<21<<<<<,<23<<111221<<<12<<<<<<><11<<>;-:<;,;;",
"&665456556+&55640q60q&%q6065eq5e9$qq6qq9qq7q%*q9q069q5q4%060466.-;;2111221<<11<<<<<1<1<w2u2u222<<<2<<<<<;;><21<<<1<>>>--:<<<:<<<",
"%656456656+&55045665q%&06q65065e4$0q7qe9qqqq%*q9q9540605%0505q6.<1ssnMCCbszCZZzlsazvbnnCbbnmmCCCBVCnbllu3<uzzvnbnbnlpaapznmzvbll",
"%q65455556%%54645690q%*06q64665q4%7q6qq9q99q%*qqqq04q604+6005q0+<uzvCMvvznCSbxzblpssvbvvbbblllzbzvnnvnzs22allsspspllmbVzzllszlxl",
"&056466646+%54055q556%&55q64665q9$5q6qe59q6q%*q6q0956455%65e400.2lvvlznvslnblaapsppzxnllbpmbzzzlzvxvnlnnu2aapllpssiuVCMxsllslspl",
"+666456556%%55654q596+&65664665q*+0q0qq5505q%&q9q0556564+06e400.2vcvllzlssllsasslsllvxllbxlxlzllzvlzzllM32lllzlalppplxlllsslzlip",
"466645655e++54654q506%&65q04506q*+9qqqq59q50&&q5q0550554+066566.2lvcvzzlpislsaslzlzvllzlvzzlssllznvzlllna2pllvlliplsppapsppsplll",
"+656&56656++545540506%&657555q00*$905qq9066q%&qqq0540565+060566.2zvbvvllsallaalzzzvvzlsllzzppspsxvnbvllnu2llllslllllalaasassapip",
"4666455666++55654055q%*050q5409q*+0qq9q4q55q&%q500456565+060595.unbvnvvzlsllslxvlzllllslpzlpllpslllvzlvC2<aallzllllpaaiaaasslllp",
"&666456556++54554655q+46666646004$9qqqq*905q%&0909*50504+050505.3bzlvzzlllzlllzpszlllllllzzbbllzsllllvln32aslzzzslsaaaiaasssssls",
"&655&56556+&54654655q%&6666656e04%9q0qq59550%&q965*50594+66q566.2llzllzlzzzllzxllxxvzvllspzbzvvzzssllslz31lllzlvllsauuaiapppsssa",
"+656455556+%546546556+&866055666*+505q5495qq%*q560*9q404%650555.ulalllllzzllzzxispszvbvvszlvvxzlllsslpll32lllzllzlsauiiipppsapaa",
"&65645655q+%5455&656q+&6660656604+509q5455qq$&q566*40554+050565.2la2llplzwlplzlp3uisznllsllllvvzlpssapal12alslzlssssaaaaaauiuaaa",
"&656545556O%545546656%&656656666&$995q99q56q%&q506*50554O656555.2lauwllpzlllzzzlpiszxxzlzlssnnvvplppppip<2alslzlllzpapsspa223uai",
"%655455555O$5465&6556%&6556556664$957q94q55q%&q559*5645*+960555.2alailllllzlzplzxlszzzzzszlvbnncppaaplpa<12alllllllppislsauiuauu",
"%655455556$$5455&6556%&6556456664$55965475qq%&q5q6*5555*+7595q5.<lllzplpplxlplllvlpplzzplllzlllslplpplll<<uialsplppssapapaauuuau",
"%655545556$$545545556+&6566466664$q55q949555%&056644944*+559755.2pplzzllllxVlllllllplzlllzzasslsllllzzzl<1alsspuu2uuispaasspi3au",
"&556445655%O5*5546555+%6556456564$90509*q556%%6596*5545&+655565.<i2lzlzslzzllplpzzpallllllvlsssllzlllzll<1alaasauuuuuaauaasauuss",
"%555545555%+545545545%%555645666*+49464*5556%&6556*5545*+955595.23azxzlllzplllllzzxlpppzllvllsaalizlllzi<<azllsspu2uupalpaiuuill",
"&655545555%+5454*5556%%6566556654$55455*q450%&0459&49*5&o095574.<a2lzzlzlllllzlzlzzllpplsszvliaaplzzllz3<<ixxppalpuuuaaaapauauap",
"%6555&5645%+4445&5555+%555545765&%555q5*5556%&0550*54*5&O055575.<333zsssllllpplplzzlzppllxlvlspslzzllzlu<<1ulpppplauppaaslauuaua",
"+645544555%O4444&5546O%5556&5665*+55554*749q+%6556%55*4&O555506.;<<upzpupsallsplllzclpazsbnlzlslzlzzl32<<:<123iipa<1aasssss<3<12",
"+55554&545%O4*54%5545+%65565&655*o95554*5455%&6465&54**&O554465.;><<<11<<:::>:<<,<<<>>;,><<<<<12222<2<<<<<>--------;;;;::>;---;-",
"&54554&655%O**45%5545+%54555&655&+5556*&5555+%9955*45**&+655464.<<<<<<11212<2222<<2><>;;-<<1322232ua2u3uuu322<1211:<1<<<<:-><>;;",
"%55444*545$O4*44&5&55+$555545555*$75555***55+%4*55&44*4*+565505.bnCVVbnvVCCMVMVCnva3i<<,<ulznllsnVCCMVMnCMnmbMxvls3asapppplxza1;",
"%54554*555$O54&5&5449++4495*5545&+65554*4449+%9*49**4&&&%565494.llzllzlzslzllzsausbMnu<<3zvnzzlzbbzzlzxlllbbxMzlllaipspuappslxu:",
"%45554&556+.$%*&+4&&*o+***4%*444%O5&444%4***$$*&**%*&&&%O555559.sllsssaszzzlssssaalbVp<2ullplplzbzzllzpplllpzzppssspaaaulsssals<",
"%6544**445O.OOOO+O+$%$+$+++%$%%%OO++++%+%++%$$$$++++$+O..655554oiaasslslznvlzzssssasza<<3uaaaaalllzplpaalalalllallslppuaauaaua2<",
"%55444*456OO55554545494*45059455565555555669559650994455%545464.assllsslzvlsvvlsssssla2<22iaaaaaiaplapplpllala2islsslpaapppaal3-",
"&554544456+&65667qq7qq7q67750qqq66778887qqqqqq7qeeeq8qq5+545565.usllzllllssaalllsaassa1233aipappwiaalipailiiiaaapllllauiaisialu>",
"$55455*546++&55444444**54*554455455555554455656556555565$545454.uaslllszsaaaaaasaaaasp21illpila3ualiiiaaiiilallpslzsppuapsppazu>",
"$54454*546+%555655555555555*445*****&*&&***444555554*&*&+555*54.asllllsssasaapaaauaalz23uaplsiaailuaaaaau2wlplallllllsaaslsplz3-",
"$45444&556++&&&544454*44***55545555656570755555555445554+554*64 salslsaalsasaasaapssll12alllspllaaiilaauailpillpalslsppallppllu>",
"$55*54*546O%5&&&&&&&&&**45555555555666755566655666666665+455454.ssasspppsaiassaauallil<2lallplllaaiaauuaipalpplailllllliaspaap2-",
"$64454*455O%665665565q5775055555565544455555555***&&&%&Oo554*6* slsasssssssaassalppaap23ppapppiiiapapuualappplppiiapillli33aau3,",
"$65454&456++555555555555555***4444444454&***&&&&&&*&44&&+445*54.llsaassplsslplpaplluua222auupippiwplz2aalpplaplaaaallalu33uu333,",
"%65454*456++5&&5*54555*5****4555555565556665656666565554+455*55.zzsaiiapassassupapp2lp>22uuuwaipliaaplplpapaluaaaiaapplaauuuaa1;",
"+55&54*446O+4***556554554555576565565666555555555555544*+454*54.lppsaaapiassaaipalluau<22auuuaaluawallplpiaplpplaiaw3pau3il3aa3,",
"O55455*455++55555565545555755555655555565555445*4544555*.954*54.aaaaaaasuuiaiuaplppluu<<3aaa2uauuupplplailppalppplaaaaaualaa3a3;",
"O&555&4455++&&****554594554665666556565555555455555654*&+*4*45%.aaiappaapuuaaaaaalllua<<uaaawuaauuapilplialialppilaaia23liaaal3,",
".OOO$$$$+++.++$+$OO.++++$$++$O++++O++$O$O+OO%+%+%%+$$+$..%%+$%+.3uaaaapsapuaiaupllpapp<<uapaaaauauiipplpilpalpalpaaaaluaaiii332;"
};
