/* XPM */
static char *north_wall_door[] = {
/* columns rows colors chars-per-pixel */
"128 128 81 1 ",
"  c #1A150C",
". c #1E180F",
"X c #271706",
"o c #271805",
"O c #2C1B07",
"+ c #221B0F",
"@ c #2F1E08",
"# c #301E07",
"$ c #321F08",
"% c #251E12",
"& c #281F12",
"* c #342107",
"= c #352109",
"- c #3B250B",
"; c #3F280C",
": c #272013",
"> c #2C2315",
", c #2F2618",
"< c #322817",
"1 c #312718",
"2 c #352A1A",
"3 c #392E1C",
"4 c #3C311E",
"5 c #392F20",
"6 c #3E3321",
"7 c #40270C",
"8 c #442B0E",
"9 c #492E0F",
"0 c #4C310E",
"q c #51340F",
"w c #472E10",
"e c #4A2F10",
"r c #4D3111",
"t c #40341F",
"y c #513412",
"u c #563812",
"i c #5B3B14",
"p c #613F16",
"a c #423622",
"s c #453925",
"d c #493C26",
"f c #463C28",
"g c #4A3E29",
"h c #523F25",
"j c #5F4017",
"k c #634117",
"l c #664318",
"z c #6A4619",
"x c #6D481B",
"c c #714B1C",
"v c #7A511E",
"b c #4D4027",
"n c #4D412B",
"m c #524127",
"M c #52442D",
"N c #59462B",
"B c #56482F",
"V c #58492F",
"C c #4F4430",
"Z c #544630",
"A c #574932",
"S c #5B4D34",
"D c #5D4F38",
"F c #5D5037",
"G c #604F37",
"H c #615137",
"J c #64543A",
"K c #68573D",
"L c #67583E",
"P c #6A593E",
"I c #675840",
"U c #6C5C41",
"Y c #715F43",
"T c #6F6045",
"R c #726245",
"E c #766549",
"W c #786749",
"Q c #7B6A4C",
"! c #7F6F53",
"~ c #816F51",
"^ c #857252",
/* pixels */
"66634666aassas66a6a63<,&233466aaadaa6a3636sdggdddaadnmAADSBMnnddO*=--=$@============-=-==-==--=-=--==---=-*-$-=*===$O$$=----$-$X",
"6aaa66ssfgfsssassnfAAB4,23afgnAAZMZZZAAZASBAAZDAASADJYRJLPPPPKFF*-rrrr;-yrrerr9rrrrrrrrrrrrur0yrryyryr09990ey9rrre97$$9ere99r9-$",
"aa6sfsasfffffaaaasdZnJs,3s6fMffMfZnMAMAMZAMMMBMMmZZZAAAAFFDASAZS*9;79;-$;;;;7888879997w988988998798998989887777977-7$-977888887$",
"644asaasnfsssssaasssMAf,2s6a6saMfgZZMMAZMZAZMMZMnMAAADAmAASASFFJ$e8797-=e888987777777877;887;;;;7878777;-7-7-7799779$=e8;887888$",
":,6sssa6sssa6666a6afaMs:2s3aassfnAngMnnngMgHMMMMMMBMAmMZAADFSHFF$w7997-=9errr9r99e9999889897979898888797888889890999*=97-987888$",
":4aassa6aassaaaa6sas6da:2a6sffdngAZBMnnZMZMADMMnhBMASMBAASSFFJFH=99899-O;;;77979999999e90w90wr99990we99r999988988788*=ww7897888$",
",aff6aaasfsssssfs6ss6fa:3nsfnMnDfssffnMAgMMMZSgMZANDAAAASDSFFJUI$e9999-$88we9er9999999w9w0w00w0099w9888788877777;;;;@-w77898898=",
"2fnsaaasffsss6sssasdsna14ZsfgAMMsssgfnnMZMMZBAMgZASSJSSDDHJIJIJH=99899-O777777;;77778888888-78;77;8w7888888999899978@=w7798-888$",
"2ffffasafffsffsfsffssna,<nnnfMAfffsfnffgBMASDJSBgZSDDSFSFJKJPHFA$e88ww--rrrrr0rryrrrrryrryrryryyrrr0rryyrr0r99rrr099$-07700-997=",
"1afnf6ssfffffnfsfndssn613nnfnZMffnnMAMMZMMBAnASAZgASHSFFFSHKPUDA$r88ww7$88979998777788789789997799997998897997988779$-97799--99=",
"<6sfs66asfffffndfnfffnf<6nfsnZMngMBMgnMfgMBnnSAJDAMSDAFDMMfnnnnM$rw8997$ee899889e98we89999r9r9weer09w89w799989899999*-9-899-;88*",
"<aaaaa6afsfassfs6dnnAAn24MnfnnnMMZZAZZZnnnMMASAHGJAABMfnnBAJUUUU$r88987XOOOOOOOOX@O@O@OOOO@OOOO@OOOO@OO@OOOOOOOOOO@OO-97999-798*",
"<aa66a6asggsfsssssfMAAm24nffnMgnfnfnZZBMnMASASSSAAZnsfnJPUWJJHFH$r97w8-XOXXOOXXOOOXXOOOO@OOOOooOOOOOOXOoOoXOXOOXOOoOX=998897;97=",
"2466aaassfssasdfsasMADg34snsnnnMnfnfsgZMASGJSDABmssfAKJHHJHSAnsa$y88ww7#--=$----=-@O-==-;-;---O=--;=--=--@O=--$--===O-79799;;99=",
"<2646assssafsaaffssnZSd326snMZnMffZCsnAAAAVAAAng6fDRKUHDMa3&:&&:$ee8ww-$-;$----;-;@@---;-;;-;-@--;;-;7-;;$O----$;==-O=9w89r;;97*",
"<26aaaaaasddsfsfnaasnAg1233safMfsfZnnnAZADAmnfa4nURRJA4&:::<<234$r88ww;$77-;7;7;;7@$;;;7;;7;7;@;777777-77=@;-;=-7=--O=9w79w77w9*",
",2sssaaaasnsdgffnsadsnd1364dgMAMfnAADAZZZAAnf36AWHJS3&:<<234aaff$y97we7$ww-;w7987r==ww-w7we8e8@799w;9r;w9-@997;-9-;7O-89799;7r9@",
">1ass6asasnndsdsnfsffMf23asgnnAMngADFSMBASZf6sHJHA4&:<644adnnAMM$r98ew7$79;8ww998w=*rw;ww8e8e8$770w8ew;w9=$77w;;9-78O-99899799e*",
",14ssaassngnggfMMngnngd23afngBZBMBVMAAAMMns3sJJHn:,136ssssnMf63,7r98ew7#w979rw799r==rw7r89eee9O9w097r97r9=@9ww;;w-97$-e8799-799*",
",<24ssdssnnngfddgMMngBa,26ffngMBfASDAgfss63MRJH6:<2addnmM6<:.&&&$yw8ew7$wr79r8wwwr=-rwwr99r8e9$7wrr;r979e=$e79w;w;w8O-r889978ww$",
",11246sfffffaaassgMgnf4>13anfsff3nHAAn33<<ZRRJ31336fnMs2&&&&&::,$rw8re8$8e7ee99eer=-yrwe9eewee$wrrr7yr7wr=$989779;78@-9979e;899$",
"&:>:&::,,111<<11<<,111<1,:1<122223a42,,,<MRRY334agfMf1:::>1<,,<2-ew8ee7$ey8we9e9rr--yr8rerr9ew$er9r8r9wre-O9999;e;9wO-e87e9;we8*",
":::>,,,,<<,<<<11233a6aasa6233a6a44a43<2,sJUJ23sfMAA3&&:,<1<2346a$y98ew8$9e89eeeewr-=yewr9rrrye$ererwre70e==98www9;77O-899wr;799=",
":133sggMMZMMBADHSADHJJZMDHPJUHAJSJHAf3:6PLJ43sdBSn,&,<2343<24ssn$re9eww$9e89yyr9rr--yrwreyre9w$errrwre9rr-*r88979;7wO;9970r79e8=",
",3sfMfsssfnfnMMZMMZDZADAnAZMnMgfnMMM614HPHa4snAFf::<<24asa446sfn-rewre8$er8eeye9rr-;ywwrwyrrye$errrwrrwwr-=eww77e788O-99www7999*",
"2sMasa6sssnnnfnMnnfffnAZAAAMnZfZnnnn3,ZUJB6gnMDa:,2344assssa4adf$r9wee8$ee8eereeey--ywwywyyryr$wrrr9rr7rr=*rew9we888$-998rr880w*",
"3sns6aasfffngfffnnnnnnZZSDAMnAZZZZna,6UJJ6dnASa:1344a6sssfffffsd$e98ee9$wy8weye8rr=-ywwywyyrye$errr9rrwwr-=rw8979788$-e98r979ee=",
"3MMsasassffnffsssnnnnfnnAAMsffZAffg<:fJHdfnADa>1346aaasfnMnnsfs3-ew9re7$ey8ereewrr--ywrywyywre=errrwrr8rr=*r98979988O-989ww89re=",
"4nffaaassgsfsssfsfMZnnnnMZnnfMgnns4:sa<63fASg114aaasaasffAMAfa6n$yweee8$er99eee9rr;-ywwywwyeye$wrrr7rrerr;*r99r7e889$-989wr8799=",
"2fsss4ssfffsssffnnZAAnCCMMZnMdfssa<,JRM41dAS2,3adsssssffffnfs4FF-r99r98$ey9wyye8ry--ywrrwwyryy-wrrrwrywer-$rw9w798w8$-890wr9we0=",
"3ss66adnfafsfnnZnMAAMZnnZnAMMnsas3:3UJSs36na,24sfdfdffassffs2aIR$r9ere8$9eeweee9rr--ywryweyeyr=wrrrwrrrry-=r9ww7w98e$-w990r89e0*",
"2fdsssffa6sfsfnnnMAZMZMZZZZAngsaa31ZUJ6nSAa,14afffdndsssfna4,,,s-r9ere7$ey98yyewrr--ywrywwywrr=wrrrwrrrry;=r9we7ee79@-r9err78ee=",
"2snnfsnnsaafdgMnZMADBBnnnnMAMDs643<JJManUUa<4asaffMgsaadnnaZDn,,-eeerw7-eywwyrewwy-;yeeywrrery=wyrrrrrrry;=y9re7r998$-r9rrr79rr*",
"2fdssssfn646fndZABAAZgfnnffnMMf63:fUPsdSSD24assssfsnffaffs4MJSH<-reeeew$eewwyeewrr;;ywyrwyyeyr=eyrrr9rrry-=y99e7rw9r$;rerrrwere$",
"2fffasddna26dfnMMAAnnfnnMfnfnns43,DJAsMAFa2asdsfdfnfgsfnns<:<aFM$yeeee7$eewwrreeyy;;ywyywrreyr=eyrrrwrrry--e9998e7we$;09rr97wwr=",
"2sfsasndnMnsfnBZMnnffffssfss6s66,<PJdgAAA24sasssMMMnMffnnfa,f6fL-ererew=eeeerreewy;7yerywyyeyy-eyrrrwrrry;=y9998e999$;rer997err*",
"2asaassdsBMMgMBAMnMnfnda36aaa642:6YJ6nSFg<asa4<gUWQUP^QFnDn3ss,H-eeerw7$eee8ererry-;yeyyweyery=errerwrrry;$r998wew99@-e9rrr7rr0*",
"2aasssdddsnMMgMBAMnndgs,&6snnngffJUAanAJa<asda<<DBgUMAP^nnM36f3A-wyeyw7$9ee8rreeyr-;yryyweyryy=ryyer9rrrr--r89989999$-rerrw7rew=",
"<asafffdsdgnnMMmAFAnda3:aW!QQWRUUUUssnAA23agfa3:4JAMP3FUP3g3ss3n$yewrew$eee7ereery-;yeyywyyery=eyyrrwyrrr--e9w8wr998$;r9ere9re9=",
"<6fssdfdasdnddgdgMBMsa2:<ADHJJAFJHJ6fMSM2asda44<:fUJHD6JRs66A3sn-eeere7$eee7eyeery-7yeeywyyryy-eryrrwrrrr--re8w80899$;re9r7erer=",
"24nfsgdsssaddadMsMBna42>%,6333333646fAFf4dndssa2>>fRFUP4DHSDfaJH$eerrew$ree8ereeyy-7yeyyeruryy=eyyerwyeey--e999we999$7e9wrwrrer=",
"<2snsdsdndsssdnMadfa621:&.%643364ddfAAU64fMfaa2<6fs6aAPTssnsnIUA=eeere7=eeewerewry77yrryrrywyy=9yyryeyeey--y99w7r988$-ee0r7wewr-",
"<<2snsffnnndgnnnsas432,::%&fafsfnMAAFHS3anMga43FRSfsfnnDFAAUUUn:=reeeew=eee8rrewyy2wyrrrwryryr<9yyrrwyewr--e99wwe999$7r9re7rrer=",
",<223222222334343<<<1:&&%.&nnnnMASHLLJB2snBsa<fPZ6fnZJFPJPUUA3:3-rreeew$eew8rrweyy-7yrwywryryr=wyyrreyewy;-ewwe7e988$7r9wr7r990=",
":::::>,<<<12<<11,::>::::+&%122<<2333233<aMnd4<DA4SDa6assdsa,:,4a=yeeee8$eee8rrwrry-;yrerwryyyq=eyrrrwyyee;-reer7r97w$;r9rr7e9rr=",
",<36ssMAAAZgfgnZndsa6432,>:,233<43644<:2dBMd44JsAZ&,<,1,<,<26aaa=reee97-eeewyr8ery-8yywrwryrye=eyyyewyewe;-eerr7r979$;r9wr8eeer=",
"<3afnnMMMMngMJSLDHJHMf434<<JUJFA6ZJJJM34dMnd4sD4H13a4sdaa6ssds33-re8ee7-wewwrywery-8yrwrwyyyrq=0eryeeyrwy7-yerr8r997$;w9r98r9rr-",
"26sfasnffsffnfMDAAADMf3<<:aSAZZn26FHDM6fMgdd3aBnf4ssaagnfsfas66S=yewee7=eewwyyweyy-wurweeyryry*8ryeeeyywy7-eerr70ww8$;99997r99r-",
"3sgdsaagnnMMMgdddMBBgsa3<&:3fSFMs<MSFn6snMf6<2nAa4sssssnfff65fAF=re8ee8$ey8wyr9rru;7yywrwrww--*---ew0r0we;-r9rrw9997$-ewe98yeee-",
"3ndsdfsnMMBMZsdssdMMMfaa2,&&:sSHf34AFs6sMsfJRDsn4nDf646MMMAFJDA3-rr7ee8$wr89yr9ery-3yyrrw-;ykxxxlj;=;r09r;-r9rr7r999$;99999ee9y-",
"2f6fffnAAAAAMnfssdnMMgsa641&&&AFSs4MJs64d<fZHUZfaJFB2,3QUJDDD43f=rr7eew$9rw9rr8ryu;wuyy-=jzuu00qqill--9wr7-r9re7re89$;98998y999-",
"<46ffnAAMMMMMMnnffdnMgfdsa3,&&6FJfa4Jd4fa1ZSUUAABMMd2,2PA4322snf=rewee8-9r99re9rrr;;yy;;lyw-*;u0==;qlw-wr7=e8r0;99w7$;99e9wee89-",
"246aMBAAZMnnfnnMMsffgddgsa2,:::AJAnaJf6aa1&1fJSDnnnM2,3Pn46dnffa=yr8ee8$ee99rr9ryy;;q;0j0--8;ljle;;-9u0*r;=r9rr;e9w7*;9we89ye99-",
"2ds4MAnAnnZMnsfnnffnnassss3,<::nFJnfSn4a4<<,&aUmnSMM3,2JMsfMZnff=er8ee7$eee9yr9yyu;;0-j0=w0;;qjqq-ww-9j-;;=ewrr;r997$;99e89e099-",
"2Mfs6sgfMgnnfdnfnnffaaaaass321:sASfsDM4aa3<2,:ZDdnAf<<<DZfZMZMd2=ee89e8-eee9ye9eyu;;#uq-8kji0800-jjj0-9i*--rw0r8r879$;eey89ee89-",
"2Mga6644fnfnnnfsffMss6adMass3<,fSDffAM4ss36Mf:3SnAA<<<<JAnAMMAfs=ee98e7$9ee9eeeeqq-#-u;;;ui00-*--0qqw7-y;O=rrrr7r997$;98e89yy98-",
"2Mgnfs6aaffnMfdssnnnfsadnnsa42:aFDfnAn34a<SJWK<ZMA3<2<<UZfDmnMnn$er88r9-9ee9yeee0u<#00-;*jj;*0jj--00-;*;rO=rrrr;eew9$-99e89yeee-",
"2MfsnsaasasMMsaassdfdnddffss42:6DDfnAB34<,AFJPmMn<aM3,,JAnAMfgnM$ee87r7$eeeweeey0q-#q0<u;;**jj;jj*-;j0-0y*=rerr8ee98$-eee89eee0-",
"2fassaaansadssnsassssssdnfs662,3HJsfAD42<:fMDsDA3DJJ22,PZnMZUMAZ$rye9e7$99e8reey0q**q;qqjj;;0kcz08;000j-r==errr7e9e7$;98e8we999-",
"2fssaa6ndsaagsBMgsadsfngnfsa4<&2JFsdSF42<::4DBsMnFJH22:Fns4nEJf6$re89re-e9e8reeywj**q;0q;O*;;jjj8;--;j0-r**ew9r799e7$;e9ywee9r9-",
"2ssa6sfnsfdsasnnngffgfnnffga61:<FSsfSS4432:&3JgsMPSD4<:DM6F4JUQE$yy8er8$eee8reey0jO*0;;;;jl;j;;8;*kj-;;;0*$reey70888$;98r99e9r9-",
"1afaaaffssfaaddMgdnMAMMnfssa42&<FFfnDS644a1,&gDMSdAJ4,:DMsJJIUUU$yr8ee8$eeeweeey00*O00;;cj0**8;8-ojlc;*j9$*0rer8e989$799re999e9=",
"16ffdnnnddgadngnngMBMMMMnssa42,<AAfASF44464<::AMAdJa:&:SA:<aFFJJ$rr8ere$e9eeeeer0b*@;;;xj;oO******O;jx*;8$$eeer89988$7e9reee8r9=",
">1sfdnfsdnMdsgddgnnBnZffMBnd42,<FFaFFA3442BUH<gnsS6:<,:DA3,fJ<::$re8rr8$e8ewweer0j;***jj*@;*;8;;;*;O;jj-=O-e99e89999$-9err9e9e8-",
",,,2fgMgZgdgddgnnMMZBn3dgMMs33>1AMasAA4422ZFJU3Mn3,121,FDa3<s26s$yr8ee9$reee9r9euu-O@rk0O8q0**--*j;;O0l;O@*erwr8er98$;w8ee99899-",
",,,>2gMd3aa4adfgsfMMn42BMMnf42:>6sssMA322:gADJsna,433<:AJas446Zd-rr7ye7$eeee7eweru=@@i0=*808;;00--j0*-jjO@*eewr79e8e$;9eye99999$",
"1222,1<11,11<23332<<<2243<22,>&<BSBnSA4461&>fHFn346621:ZHangsZMM$re9ee9$e9r9er7rru-O=irO-*--;j;j;---*O;j$*=eewr99e99$;89yy8e99e-",
",23422224333<<34assa42<::::>>::3JFSfFFadss3,&aAA46sZ2<:sJffnMnMn$rr8ee7$eer99eweru=@;rw@08--*;jj;;;;;o;j=$=r98r98ew9$-9e9989eee$",
"<4afgndMnmZnsanMSAnnnfa<23433<:<AFAfJF4dMna<:<nMa2HUf3:<DSsAAMff$ye8ee7$99e9we9err=@-q8o;8j-*-;;*-;j;Ojj=@=r98y97e9e$-8e9r8999y=",
"2dBDAABADUUAdagZLJJASMs434SMa3:2SSZsFS4sMnd4<:2Zs4AFH2::mHMfAfa2$yr7ee9$e9rewe9rru-@-00OO-;0j;-jjj;;*Oj;*$-r9999899e$-99ye89e99-",
"<sgs46sgMgdnZffADJHAAHn34Mn422:2SDAsDF46ds4sMAsAsaDJM3<:<ASsfna<$er8e97$9eeeee9e0r-@@0u@*OO-*;;;***OO*00$@-e98re7ee9$;999e9899e=",
"2sssaasgffddngnnnAAMMSM44fd44<:3ASAfAS66a42ASHJPD4DJs22,:fAAss4,-ye8ee7$9eeeeewr0q;#O0i=***@OoOOOO***-j;O#-e99r97e97$;e99y89999-",
"<aasasafsfdfZnffnnMAMSA4tgds42:2AAZfZS3aa2assfsfJ2SFs<3<&:fFMa62$re9eew$7we9ee9ewr;=&7q0=-=--=O@**-;*j0-**-qe8ee7998$79eer97eee-",
"2ssfssdsasffMMMnMnBAZAA44dddt3:<AAZnFA44s14aZHJZadsF4<<<,&&6FA46$re8ee9$99e9rr9ery;-**0u=-;ww8*---;*;j8****q99rr8998$7999y8899e=",
"<adssssg4asnMMnMAMMnfMn33dgda3:2AAFfAA3441>fDMMADAaD2,<2<,&&3SSa7re8ee7$79w7re9ewu---O-0i-=wrr*8;;-;j8*O--*q89r98e88$-e99y8899e-",
"2ddfsdda4asgnMMnAAMnsfM23sssa3:2AAZnZZ2333&dnasMBJPsa&<,2,::&&AS$re89e8$99e9reeery;-8*O;wir=--***-jj0-:*;;<0980w8999$799ey8899e$",
"<safsssfadsffngMAZZMsss<2ass43:3AAAAZA<343:2f&+%+,ZAf::1HF3:&&:f7re9997$wwe7reeryu;-8;*O-80jjuijjjj-*O*;8;-088e98e98$-e9er88y0r-",
"2sfffsadgdfssnnMnMMnss322466a3>2AAZMZA34a3<:2::,&&.ff6&,JFg,1>&:$ye8e97$wwr9eeeyry-;q;-*O#-89w990;;OO*;;0;-r8w0w8988$8e99e89999-",
"2fsnnMsssggsfgMMnnnfsff3<44aa3:2ADSnMZ3a432<:,<,&. .6A6&ZDA,21,>$ew9998$eer7eeeyry;;ew;-*#oO@=***OOO*-;;0;=r8wr08e87$7e99r89e99$",
"2fgnMsassssgfgnMgfnnffM33aaaa2:1AZAMnZ36att43<,:,fAAHFD:fAS1422,-e999e8$89r7eerrry;;qe0;---*@OoOO**---;00;=r80008898$-999r799e9=",
"2sdfdfadddddfdfnffnMZZM33a6a63>1AAAAnA3aaa444<&3AM<&,6ZJ4nS4323<$r89998$99e7rwrrry-7rrre7;;;--O*-=-;7;9rr-=r79998898$788ee899w9$",
"36fffsgZBggfnnfnfffgnAg22sa343><AAAAnA6ada6a4,:sMnAZsfADDSAg1>ZA-r99998$w9e7wrryry-;reer999777@;wwwrr;rrr-=r98998888$-98er79989-",
"22agaadMAAsnnfddffggnMM22sa642,1ZMmnnZ36assa6,,ZMAASJAnMADHH2:nJ$e89e97$89e9wrryrr;-reereer0rr=wrwrrrwwry-=r7wr989e8$-w89e89999$",
"344ssaaagfssfnfsfffMnMB23ss64<&:dMMgsf3asssa6,&4ng3AFf21<4MDS<:S-9999w8$99rw8wryrr--rerre9yyrr=wrrrrr7rrr-=r7w797988#-878978989-",
"3aaagdasasffnnfsfffnfnA<3gs42&:4nfffZg66asdss,:aZa1M6&&:::&3AF&<-r89e98$wwewwerrey=-yeereeyyrr=9rrrrr89rr-=r8809;w88#-989978888$",
"<4aaasfnsfffnnnfdassfnM22s431&,DWRJJURn2snnda<:sMf&a::1<22<+<AA&$e88ee7$79r78e9rer--yeeerryrye=9yrryr8wrr-=078097998#-e89988999$",
",222246snnnMMnMnffnffga1,3321&1nASZMAJf2snnn6<&6fM<,&134422,&2As-e89y98$98998rerry--yerrreyrre$9rrrrr8ryr-=089w9-w98$$r88987998$",
":112446asfnMnggMMMgds43112a41&1ZAAAZnAf3sfnna<::2sfa<3aa23m6>:fD-e89998$9w9w7eeree-7rerrr9yyyr$9reryr8rrr-=r79997e88#$ew8997999-",
"::121<<343333333233221:1<:<,&&1MAAAAAZa3adMns4<,&::,36a43JSJf:3Z-999ee7*w9e97rer9y-;yeere9ryye$9re9ye89rr==e9wr8;998@-999ee7ee9-",
":&&&,1122223332221,<<22352,:&&,nAAAJMma3afnMfa4211<3aaa1gDAZZ:,S$989r97=w9e98yreer-;y89ey8yeye-8er9rreerr-=r99r8;987@=w8eee7e99=",
",12233aaffAAAMAAfsfgMMgdMd42&:264asss3646ffngsa4a6asfda:sA6nf:2J=r99r97=e8988eeeee$;y9ere8eeye$9rr9er99rr==w8997;887$-979997999=",
",,23asnnnfZZAABnngAZMADMns3,1MFURWRUJJPD4asfMssMdsffdsa,aAa:,1sD=989997$98ww79eeee--e99er8yeer=9rrw9re9er=*e7797;e87O-r78997999=",
":164fnfnnnMMZAMdsassfsffa32:3nnnAMAnZDSB44sMfsagbgnnnd62,MDGMZZn$989997$889e7eeeee--e99ee8y9re=wrr9ere7re=$w77r77978$-87999;799*",
",36fnsfnnnngMAZMnnddgfnfda2:3ffnnMMMMnMS22adgdsgngngdga3&<dAZZs>=q89897$988e;9e88e-=e8eee8e99y$9rr9wr97re**e97997878O-879997998=",
",6saaaffffsdMfnBnffdnfdsa4<:6dnMMnMMnMAB44dndddMMMMgsndt2:&<21:s-98999-$898e;w9ee9--999e98r999$e0r07r99er**r79w7;97w@-07799;897-",
"2snasaasasafdffgMgnnMffsa31:6ffnnnMBBMAn24ssdMMMBdgssdgsa32,:&<f$r89897$e88e7we99e--ew8y98ee99-8rrw7rr79r=$r779;-e78@=9;9997797=",
"2dfdsasss466sMngffgfMMMsa6<,adnMffMAMMMn34asdfdfsssasMMssaa63<&>$989997$897rw7998r=-r79088e8re*8er97e9799==9789;-9;8$-97998;7;-=",
"<fnMfsssgdssssffsdfdfdndss2:anMAnnnnnfMn336aasdsssgsdggsfss66321*r9w8w7$9www7;w99r-=r99989r9ee$wee98ee;99=$97998-877O-87879;998=",
"2fMMBfdddffMndgfssffssdga42>anMnfnfnnfnn24aasdssdMgdgsfMfffa6632*e87987*9wwr77r99r--r79r7999we*wee989e;w9=$99797-978$=97799;798=",
"2dnMMnnndffnMgnnsssss4sd32,:6dgfgsfssndf4assfdssddgff6fsnffsfsa6*e879w;$977r;wee9w==rw99;9r999*899979w;8e==9799--w88$=987988779*",
"2ddfgffdfffffnMnaa6sa6aa62,&2afnnnfssnfs66asssaaffdsaaasssssfssa*ew7w9;*987r97e79w==08w9;ee8rw@7999;99-99*$w9897-978O-97;7w7988*",
"2agdffssssffffnnsssaa6441,<3<23666666a6sassgaa636asfssfsssassfsf=ee7797$88;rw7r989=-9899;ee9r7$;999;99789-*w8797-877$-97-89978w*",
"22sdfsasasssfnngfsaa6432,3anASJPJPHJUIUUJHHJJUJ4MFJLJHUTUUPJJJHH=9e79w;$97;w87e88r-=r7997e99w9*7ee9;09788-*88799=9-8O=99-7w777w*",
"24snfa6aasfssfnsdda6663,,gngZFJHDSJHDFHSFLLJJJJ2DAHHLJJFAKUYWRWU=99w7w;*897w78988r=-w97979e8ww*7999;99789-@989e7-9-7$=98;77w7ww*",
"2aafs6a66aassddssssaa63>2fgffffffnnnnffgffnnnMA2nnnMZnnnCnZHHDSJ=977e9;$97;w7;e999-=ww97;999w;*;999799;88-*7;89;-877#-88-797798*",
"166ssasaaasasssaaaa46s41,fsfffnnnfnffnfgffnnnAA2ffnggfnnAAZnAAAA$997we;$87;w77w889==w79w;897w7@8999-89798=O9789;-877#-88;89w9;w*",
"<44ag6s6saasssfssaa6466<1aangfnnnMMnnnfffZMnMZS1fnngffnZnnnnnMAZ$98789;$79;w;;ww;9**r797;99998@;889-w9979=*97;w7*77-#$88-7877w7=",
":62afsaassffdssss64aa46<,<afffffnffngnfssfnnnnf<snnnfnnnnfgfffMB$99;98;$7;;77;w7;9*=w779;89797@7898779778=@97;87-877$$88-w9;;78*",
":436adssfdsssssassaaaa421::<<<<2223332333364332:132333233<2<2112$98;87;$77;w-;w878$=w;79-9978w@;888-88877-*w;;77-7-7O-88-78;789*",
"&,466saaaadsasssasa3a6441:&:&&::&&&::&&::&&&:&::&&&&&&&&&&&&&&:&$88;79-$77;w-;9w88$=9-88-89;77@;888779777=*8;-7;-7--#$88;;9;787=",
"&&::23646ss3<1234aa2343<,::1<2<22211,12223<2<22<1<<,<122,<212222$98;88-$77-8;;977w$=w;;9-97w77@;888-88779=*8;;7;-7-;O-98-79;;;9*",
"::&:&&:>:::>::>:>,1>>::&:::&&&&::::&&&:&,::,,:&:&::::,:,::,:::::$98778-#77-8--e7;7$=8;;;-9w77w$7888-88-77-*7;-7;-7--O-88;787;w7$",
"<<<,1:,,1<<23233244343<,,>::&&:><,,,,,<<,<11<<<<11112,111,,11,>1$98778-$-7;7;-877w@=w;;7-78ww;@7w77-99;77=$7;;7;-7--O-88-777797*",
"ffsaaaffsdsdAADZADAAAASn6<,:::3saaassfsaas66aa6affgAgMMBZMddgfsa$98787-O-;=-=-77-;$*;-;7-w7;;;@;7;;=77--7=$;=-;==---O=88-787798*",
"6446646aasadfnngsfdsngfffa3:>2saaaaaaaa6saaa4334ssssffssgfnnfMMf$87787-O$*$@$$=$*=$=$$==$=$$**$**======*=*@$$**@$$OOO$89--88787=",
"aa444aaass6adffnfa6asaaafM3:<aasssasaaassass643asssfsngssfffngnf$98787-$97ww89www797w7777w7w87w7ww7;;9;8ww;w7-;;77;7$-87--87787*",
"ss444466sa63agffsaa6aa6asM4:344aaaasdssfsssdasasfffffMMnssfMBgfs-98787--9rwreeee090rr0rrry0rr0r0wrrrrrrweerr000r9e99$-87--7;777=",
"aa4444466fa46addaaasaasssA4,3aa4tasdsssfffngssfndffffgZMfffnMnfd$88-88-$789888887;;;8-8;87889999979999887w8888778899$=98-;9-798=",
"ada46a66asfdssdadssa6asdsf4,3a33aaaasasdfggnMngfngggfgMZMfsfnffs$97797-$7898909r90999999r988;;7787777787887888899787$-77-79;;87*",
"4a6aaa6asasssssassaaassssna1444aasaa4aadsfgnngMnnMffddMBnfnsdfMf$88787-O;;;777777-;;799r999999898898977;-----*-*---=O=8-;98;77w*",
"4646aasssasdssadssssaasasfa,4444aassasfffnddsdnngdngdgnBZMfdgdZn*9877w-$;;---;;;;79777;7;887888-78-;8;;87998898999ee$=w-;78-887*",
"43346sfssdsssssssasasafsasa,a6a6aaasssnnnndassnnngMgsddgMddssggn*w7887-$wrrrrrr9r0r9rw978788;87-;;8800999099889w7877$=8-;89--98*",
"a633asaassssssssaasasdsaaas,6asa6asssfgnndssadnBZMndagfdddsaasds$w8787-$788899998998r0900rww0998999998898798888-;;;-@-8-7798779$",
"6a636666ssasassssaaddfffafa,3dasasssdddgdnddddMgdnnsdggdsaatasds$97779-$7888879788899888888998999988898787-;-;-87;77@=7-888-999O",
"aaa66asaaa6aaasas64afsfnsg4,3fsdaasannfdgnMnddMgdgmNmmddaattasdd$7;788;$--;;-;8;;78;8777-87;;-7-;;7;--78788889989799$=w;7798-77@",
"aaa6saasaa666sasaa66ssas6n2>2dndsasafdnfgdddgddhdhmmmmBMdaaaaddd=9;988-=8ww7787;878989w8w00w998999www0099e9998887997@*9;8977-9-O",
"6aa66s6a66aaasaaaaa4assa6d3&2assnsdddnnnndadsssdshmNMmMgddddgddg$;;;78==787w9w09999w79w77;78799789w777;7777877;;;;;;$*7;787797-O",
"466636664636aaaaa44tttaaas2>,6asasffsddd6addasasddghmghgddddddsd@=$$$$@@$$*=$*$*=$$@*$$*****$$$$@@=**@**$*=$$$#$@*O$@@**@**$OOOO"
};
